<svg width="360" height="97" viewBox="0 0 360 97" fill="none" xmlns="http://www.w3.org/2000/svg">
<path d="M3.60938 20.9844C5.27604 21.0365 6.73438 21.0625 7.98438 21.0625C9.23438 21.0104 10.25 20.9844 11.0312 20.9844H13.2969C13.8698 20.9323 14.5729 20.9062 15.4062 20.9062C16.1354 20.9062 17.0208 20.9062 18.0625 20.9062C19.1042 20.9062 20.3021 20.9323 21.6562 20.9844C22.0729 22.4427 22.5417 23.875 23.0625 25.2812C23.6354 26.6354 24.1302 27.8594 24.5469 28.9531C25.0677 30.2552 25.5885 31.4792 26.1094 32.625C26.6302 33.7708 27.2552 35.151 27.9844 36.7656C28.6094 38.1198 29.3646 39.7865 30.25 41.7656C31.1354 43.6927 32.1771 45.9062 33.375 48.4062C33.9479 46.7917 34.4688 45.3073 34.9375 43.9531C35.4583 42.599 35.901 41.4271 36.2656 40.4375C36.6823 39.2917 37.0208 38.25 37.2812 37.3125C37.5417 36.375 37.8281 35.2292 38.1406 33.875C38.401 32.7292 38.6875 31.349 39 29.7344C39.3646 28.1198 39.7292 26.2448 40.0938 24.1094C41.6042 24.1094 42.9583 24.1094 44.1562 24.1094C45.3542 24.1094 46.3958 24.0833 47.2812 24.0312C48.2708 24.0312 49.1562 24.0052 49.9375 23.9531C50.7708 23.9531 51.8906 23.901 53.2969 23.7969C54.4948 23.6927 56.0833 23.6146 58.0625 23.5625C60.0938 23.4583 62.5938 23.3281 65.5625 23.1719C64.4688 23.9531 63.5833 24.7344 62.9062 25.5156C62.2812 26.2448 61.7865 26.8958 61.4219 27.4688C61.0052 28.1458 60.7448 28.7969 60.6406 29.4219C60.5365 29.9427 60.4323 31.1406 60.3281 33.0156C60.276 34.8906 60.1979 37.1302 60.0938 39.7344C60.0417 42.2865 59.9896 45.0208 59.9375 47.9375C59.9375 50.8542 59.9635 53.6146 60.0156 56.2188C60.0677 58.8229 60.1458 61.0885 60.25 63.0156C60.4062 64.8906 60.6146 66.0885 60.875 66.6094C61.2396 67.2344 61.7344 67.9635 62.3594 68.7969C62.9323 69.526 63.6615 70.3594 64.5469 71.2969C65.4844 72.2344 66.7083 73.276 68.2188 74.4219C65.8229 74.526 63.8177 74.6042 62.2031 74.6562C60.6406 74.7083 59.3385 74.7604 58.2969 74.8125C57.099 74.8646 56.1354 74.8906 55.4062 74.8906C54.625 74.8906 53.5573 74.9167 52.2031 74.9688C51.0052 75.0208 49.4167 75.099 47.4375 75.2031C45.4583 75.2552 42.9062 75.3594 39.7812 75.5156C40.5104 74.6823 41.1875 73.849 41.8125 73.0156C42.4375 72.1823 42.9583 71.4271 43.375 70.75C43.8958 69.9688 44.3385 69.2135 44.7031 68.4844C45.0677 67.4948 45.3542 65.6979 45.5625 63.0938C45.7708 60.8542 45.9271 57.651 46.0312 53.4844C46.1354 49.2656 46.1354 43.6146 46.0312 36.5312C45.0417 38.1458 44.1562 39.7604 43.375 41.375C42.6458 42.9375 41.9948 44.3698 41.4219 45.6719C40.7969 47.1823 40.224 48.6406 39.7031 50.0469C39.1823 51.5052 38.6354 53.1198 38.0625 54.8906C37.5417 56.401 36.9167 58.1979 36.1875 60.2812C35.5104 62.3646 34.7292 64.6562 33.8438 67.1562L30.875 67.3125C30.4583 65.2292 30.0417 63.3542 29.625 61.6875C29.2083 59.9688 28.7917 58.5104 28.375 57.3125C27.9062 55.9062 27.4375 54.6562 26.9688 53.5625C26.4479 52.4688 25.875 51.2448 25.25 49.8906C24.6771 48.7448 23.974 47.3906 23.1406 45.8281C22.3594 44.2656 21.4479 42.5208 20.4062 40.5938C19.8854 45.9062 19.5729 50.2292 19.4688 53.5625C19.3646 56.8438 19.3646 59.3958 19.4688 61.2188C19.5729 63.4062 19.7292 64.9948 19.9375 65.9844C20.25 66.8698 20.7448 67.8594 21.4219 68.9531C21.9948 69.8906 22.776 71.0104 23.7656 72.3125C24.8073 73.5625 26.1354 74.9688 27.75 76.5312C26.6042 76.5312 25.4062 76.5312 24.1562 76.5312C22.9062 76.5312 21.7604 76.5573 20.7188 76.6094C19.4688 76.6615 18.2448 76.6875 17.0469 76.6875C15.7969 76.7396 14.3385 76.8177 12.6719 76.9219C11.2135 77.026 9.46875 77.1302 7.4375 77.2344C5.40625 77.3385 3.0625 77.5208 0.40625 77.7812C1.55208 77.0521 2.48958 76.349 3.21875 75.6719C3.94792 74.9427 4.52083 74.2917 4.9375 73.7188C5.45833 73.0417 5.84896 72.3646 6.10938 71.6875C6.26562 71.2708 6.39583 70.3594 6.5 68.9531C6.65625 67.5469 6.78646 65.8281 6.89062 63.7969C7.04688 61.7656 7.15104 59.5 7.20312 57C7.30729 54.5 7.38542 51.974 7.4375 49.4219C7.54167 46.8177 7.61979 44.2917 7.67188 41.8438C7.72396 39.3438 7.75 37.1042 7.75 35.125C7.80208 33.0938 7.82812 31.401 7.82812 30.0469C7.82812 28.6927 7.82812 27.8333 7.82812 27.4688C7.67188 26.6875 7.4375 25.9062 7.125 25.125C6.86458 24.4479 6.44792 23.7448 5.875 23.0156C5.30208 22.2865 4.54688 21.6094 3.60938 20.9844ZM81.975 42C83.3292 42 84.7354 42.2604 86.1937 42.7812C87.6521 43.25 89.0583 43.875 90.4125 44.6562C91.7667 45.3854 92.9906 46.1927 94.0844 47.0781C95.2302 47.9115 96.1677 48.7188 96.8969 49.5C98.199 50.9062 99.0844 52.8073 99.5531 55.2031C100.074 57.5469 100.178 59.9688 99.8656 62.4688C99.5531 64.9167 98.824 67.2344 97.6781 69.4219C96.5323 71.6094 94.9437 73.224 92.9125 74.2656C91.4542 74.9948 90.0219 75.5677 88.6156 75.9844C87.2094 76.401 85.8552 76.7135 84.5531 76.9219C83.251 77.1302 82.0271 77.2344 80.8812 77.2344C79.7354 77.2344 78.7458 77.2083 77.9125 77.1562C76.35 77.0521 74.7094 76.5052 72.9906 75.5156C71.324 74.526 69.7354 73.3021 68.225 71.8438C66.7667 70.3854 65.5167 68.7969 64.475 67.0781C63.4333 65.3073 62.8083 63.6406 62.6 62.0781C62.2875 59.9427 62.2354 57.7031 62.4437 55.3594C62.6521 53.0156 63.4073 50.8542 64.7094 48.875C66.0635 46.8958 68.0948 45.2552 70.8031 43.9531C73.5635 42.651 77.2875 42 81.975 42ZM79.3969 72.3125C79.9698 72.4167 80.751 72.2865 81.7406 71.9219C82.7302 71.5052 83.6937 70.8542 84.6312 69.9688C85.6208 69.0833 86.4802 67.9635 87.2094 66.6094C87.9906 65.2031 88.4594 63.5104 88.6156 61.5312C88.7719 59.6042 88.7719 57.8333 88.6156 56.2188C88.5115 54.6042 88.2771 53.1979 87.9125 52C87.5479 50.75 87.1312 49.7344 86.6625 48.9531C86.1937 48.1719 85.699 47.625 85.1781 47.3125C84.2927 46.8438 83.225 46.4792 81.975 46.2188C80.725 45.9062 79.6573 45.9583 78.7719 46.375C78.3552 46.5833 77.8344 47.026 77.2094 47.7031C76.5844 48.3802 75.9594 49.2396 75.3344 50.2812C74.7094 51.2708 74.1365 52.4167 73.6156 53.7188C73.1469 55.0208 72.8083 56.375 72.6 57.7812C72.3917 59.1875 72.3396 60.6979 72.4437 62.3125C72.6 63.9271 72.9385 65.4635 73.4594 66.9219C73.9802 68.3281 74.7094 69.5521 75.6469 70.5938C76.6365 71.5833 77.8865 72.1562 79.3969 72.3125ZM89.6375 33.9531C90.5229 34.1094 91.4344 34.2396 92.3719 34.3438C93.2573 34.3958 94.0646 34.4479 94.7937 34.5C95.6271 34.5521 96.4344 34.5781 97.2156 34.5781C97.9969 34.5781 98.8823 34.5521 99.8719 34.5C100.705 34.4479 101.695 34.3698 102.841 34.2656C104.039 34.1615 105.341 34.0052 106.747 33.7969C105.914 34.2656 105.262 34.7604 104.794 35.2812C104.325 35.8021 103.96 36.2708 103.7 36.6875C103.387 37.2083 103.179 37.6771 103.075 38.0938C102.971 38.5104 102.997 39.3698 103.153 40.6719C103.309 41.974 103.518 43.4844 103.778 45.2031C104.091 46.9219 104.429 48.7188 104.794 50.5938C105.158 52.4688 105.523 54.1875 105.887 55.75C106.304 57.3125 106.669 58.6146 106.981 59.6562C107.346 60.6979 107.632 61.1927 107.841 61.1406C108.049 61.1406 108.361 60.6198 108.778 59.5781C109.247 58.5365 109.768 57.2604 110.341 55.75C110.914 54.1875 111.512 52.4948 112.137 50.6719C112.762 48.7969 113.309 47.0521 113.778 45.4375C114.247 43.8229 114.611 42.4688 114.872 41.375C115.184 40.2292 115.315 39.5521 115.262 39.3438C115.106 39.1354 114.924 38.849 114.716 38.4844C114.351 37.9115 113.544 36.9219 112.294 35.5156C113.804 35.6198 115.106 35.724 116.2 35.8281C117.294 35.8802 118.179 35.9583 118.856 36.0625C119.637 36.1667 120.262 36.2448 120.731 36.2969C121.2 36.349 121.877 36.349 122.762 36.2969C123.492 36.2969 124.455 36.2708 125.653 36.2188C126.903 36.1146 128.44 35.9583 130.262 35.75C128.908 36.5312 127.789 37.2344 126.903 37.8594C126.07 38.4323 125.419 38.9271 124.95 39.3438C124.377 39.8646 123.96 40.3073 123.7 40.6719C123.335 41.349 122.684 42.9635 121.747 45.5156C121.33 46.6094 120.809 47.9635 120.184 49.5781C119.611 51.1927 118.908 53.1458 118.075 55.4375C117.294 57.6771 116.356 60.3073 115.262 63.3281C114.169 66.349 112.945 69.8125 111.591 73.7188L104.012 74.5C103.023 71.2188 102.216 68.4844 101.591 66.2969C101.018 64.0573 100.549 62.2604 100.184 60.9062C99.7677 59.3438 99.4552 58.1198 99.2469 57.2344C98.9865 56.2448 98.674 54.8125 98.3094 52.9375C97.9448 51.0104 97.5802 49.0573 97.2156 47.0781C96.851 45.099 96.4865 43.3281 96.1219 41.7656C95.7573 40.151 95.4708 39.1615 95.2625 38.7969C95.0542 38.5365 94.6896 38.1719 94.1687 37.7031C93.7521 37.2865 93.1792 36.7917 92.45 36.2188C91.7208 35.5938 90.7833 34.8385 89.6375 33.9531ZM119.878 42.0781L134.253 42.2344C133.42 45.4115 132.795 48.1198 132.378 50.3594C132.014 52.599 131.779 54.474 131.675 55.9844C131.467 57.7031 131.415 59.1615 131.519 60.3594C131.675 61.4531 131.935 62.625 132.3 63.875C132.613 64.9167 133.081 66.1146 133.706 67.4688C134.331 68.8229 135.165 70.1771 136.206 71.5312C135.581 71.3229 134.904 71.1667 134.175 71.0625C133.446 70.9583 132.769 70.8802 132.144 70.8281C131.415 70.776 130.685 70.776 129.956 70.8281C129.227 70.8802 128.42 70.9583 127.534 71.0625C126.805 71.1667 125.92 71.2969 124.878 71.4531C123.836 71.6094 122.743 71.8177 121.597 72.0781C122.378 69.7344 122.977 67.7031 123.394 65.9844C123.863 64.2656 124.201 62.8333 124.409 61.6875C124.618 60.3333 124.748 59.2396 124.8 58.4062C124.8 57.3646 124.8 56.1927 124.8 54.8906C124.8 53.5365 124.8 52.2344 124.8 50.9844C124.8 49.7344 124.774 48.6406 124.722 47.7031C124.67 46.7135 124.566 46.0885 124.409 45.8281L123.628 45.0469C123.316 44.7865 122.847 44.4219 122.222 43.9531C121.649 43.4323 120.868 42.8073 119.878 42.0781ZM125.425 30.0469C126.519 29.474 127.613 29.3177 128.706 29.5781C129.852 29.8385 130.738 30.3333 131.363 31.0625C131.988 31.7917 132.196 32.651 131.988 33.6406C131.831 34.6302 130.998 35.5938 129.488 36.5312C127.977 37.4167 126.649 37.7292 125.503 37.4688C124.357 37.2083 123.55 36.6615 123.081 35.8281C122.613 34.9948 122.534 34.0312 122.847 32.9375C123.159 31.7917 124.019 30.8281 125.425 30.0469ZM152.931 64.4219C154.39 64.4219 155.744 64.2656 156.994 63.9531C158.035 63.6927 159.025 63.276 159.963 62.7031C160.952 62.0781 161.603 61.1667 161.916 59.9688C162.957 60.1771 163.843 60.3594 164.572 60.5156C165.301 60.6198 165.926 60.724 166.447 60.8281C167.02 60.9844 167.515 61.0885 167.931 61.1406C168.348 61.2448 168.843 61.349 169.416 61.4531C169.936 61.5573 170.561 61.6875 171.291 61.8438C172.072 61.9479 172.983 62.1042 174.025 62.3125C173.244 62.2083 172.436 62.2865 171.603 62.5469C170.822 62.8073 170.067 63.0938 169.338 63.4062C168.504 63.7708 167.723 64.2135 166.994 64.7344C166.525 65.0469 165.978 65.5156 165.353 66.1406C164.78 66.7656 163.947 67.3646 162.853 67.9375C161.759 68.5104 160.301 69.0052 158.478 69.4219C156.707 69.7865 154.416 69.9167 151.603 69.8125C148.218 69.7083 145.379 69.1094 143.088 68.0156C140.796 66.8698 138.947 65.4896 137.541 63.875C136.134 62.2083 135.119 60.4115 134.494 58.4844C133.869 56.5573 133.53 54.7604 133.478 53.0938C133.426 51.4271 133.921 49.6823 134.963 47.8594C136.004 46.0365 137.463 44.3698 139.338 42.8594C141.265 41.349 143.582 40.125 146.291 39.1875C148.999 38.1979 151.968 37.7031 155.197 37.7031C157.072 37.7031 158.791 37.9375 160.353 38.4062C161.968 38.8229 163.426 39.3958 164.728 40.125C166.082 40.8542 167.254 41.6875 168.244 42.625C169.233 43.5104 170.067 44.4219 170.744 45.3594C171.421 46.349 171.994 47.3906 172.463 48.4844C172.879 49.4219 173.218 50.4896 173.478 51.6875C173.739 52.8854 173.817 54.1094 173.713 55.3594C169.754 55.4635 166.551 55.5417 164.103 55.5938C161.707 55.6458 159.832 55.6719 158.478 55.6719H154.963H152.306C151.369 55.6719 150.145 55.6979 148.634 55.75C147.124 55.8021 145.275 55.8802 143.088 55.9844C143.348 58.0677 143.999 59.6823 145.041 60.8281C146.134 61.9219 147.28 62.7552 148.478 63.3281C149.832 63.9531 151.317 64.3177 152.931 64.4219ZM145.9 50.3594C147.567 50.4635 148.947 50.5417 150.041 50.5938C151.186 50.6458 152.124 50.6979 152.853 50.75C153.634 50.8021 154.259 50.8281 154.728 50.8281H156.681C157.983 50.8281 160.405 50.75 163.947 50.5938C163.791 48.3021 163.296 46.5573 162.463 45.3594C161.681 44.1615 160.848 43.276 159.963 42.7031C158.921 42.0781 157.775 41.7135 156.525 41.6094C153.14 41.6615 150.614 42.3646 148.947 43.7188C147.332 45.0729 146.317 47.2865 145.9 50.3594ZM168.875 20.9844C170.542 21.0365 172 21.0625 173.25 21.0625C174.5 21.0104 175.516 20.9844 176.297 20.9844H178.562C179.135 20.9323 179.839 20.9062 180.672 20.9062C181.401 20.9062 182.286 20.9062 183.328 20.9062C184.37 20.9062 185.568 20.9323 186.922 20.9844C187.339 22.4427 187.807 23.875 188.328 25.2812C188.901 26.6354 189.396 27.8594 189.812 28.9531C190.333 30.2552 190.854 31.4792 191.375 32.625C191.896 33.7708 192.521 35.151 193.25 36.7656C193.875 38.1198 194.63 39.7865 195.516 41.7656C196.401 43.6927 197.443 45.9062 198.641 48.4062C199.214 46.7917 199.734 45.3073 200.203 43.9531C200.724 42.599 201.167 41.4271 201.531 40.4375C201.948 39.2917 202.286 38.25 202.547 37.3125C202.807 36.375 203.094 35.2292 203.406 33.875C203.667 32.7292 203.953 31.349 204.266 29.7344C204.63 28.1198 204.995 26.2448 205.359 24.1094C206.87 24.1094 208.224 24.1094 209.422 24.1094C210.62 24.1094 211.661 24.0833 212.547 24.0312C213.536 24.0312 214.422 24.0052 215.203 23.9531C216.036 23.9531 217.156 23.901 218.562 23.7969C219.76 23.6927 221.349 23.6146 223.328 23.5625C225.359 23.4583 227.859 23.3281 230.828 23.1719C229.734 23.9531 228.849 24.7344 228.172 25.5156C227.547 26.2448 227.052 26.8958 226.688 27.4688C226.271 28.1458 226.01 28.7969 225.906 29.4219C225.802 29.9427 225.698 31.1406 225.594 33.0156C225.542 34.8906 225.464 37.1302 225.359 39.7344C225.307 42.2865 225.255 45.0208 225.203 47.9375C225.203 50.8542 225.229 53.6146 225.281 56.2188C225.333 58.8229 225.411 61.0885 225.516 63.0156C225.672 64.8906 225.88 66.0885 226.141 66.6094C226.505 67.2344 227 67.9635 227.625 68.7969C228.198 69.526 228.927 70.3594 229.812 71.2969C230.75 72.2344 231.974 73.276 233.484 74.4219C231.089 74.526 229.083 74.6042 227.469 74.6562C225.906 74.7083 224.604 74.7604 223.562 74.8125C222.365 74.8646 221.401 74.8906 220.672 74.8906C219.891 74.8906 218.823 74.9167 217.469 74.9688C216.271 75.0208 214.682 75.099 212.703 75.2031C210.724 75.2552 208.172 75.3594 205.047 75.5156C205.776 74.6823 206.453 73.849 207.078 73.0156C207.703 72.1823 208.224 71.4271 208.641 70.75C209.161 69.9688 209.604 69.2135 209.969 68.4844C210.333 67.4948 210.62 65.6979 210.828 63.0938C211.036 60.8542 211.193 57.651 211.297 53.4844C211.401 49.2656 211.401 43.6146 211.297 36.5312C210.307 38.1458 209.422 39.7604 208.641 41.375C207.911 42.9375 207.26 44.3698 206.688 45.6719C206.062 47.1823 205.49 48.6406 204.969 50.0469C204.448 51.5052 203.901 53.1198 203.328 54.8906C202.807 56.401 202.182 58.1979 201.453 60.2812C200.776 62.3646 199.995 64.6562 199.109 67.1562L196.141 67.3125C195.724 65.2292 195.307 63.3542 194.891 61.6875C194.474 59.9688 194.057 58.5104 193.641 57.3125C193.172 55.9062 192.703 54.6562 192.234 53.5625C191.714 52.4688 191.141 51.2448 190.516 49.8906C189.943 48.7448 189.24 47.3906 188.406 45.8281C187.625 44.2656 186.714 42.5208 185.672 40.5938C185.151 45.9062 184.839 50.2292 184.734 53.5625C184.63 56.8438 184.63 59.3958 184.734 61.2188C184.839 63.4062 184.995 64.9948 185.203 65.9844C185.516 66.8698 186.01 67.8594 186.688 68.9531C187.26 69.8906 188.042 71.0104 189.031 72.3125C190.073 73.5625 191.401 74.9688 193.016 76.5312C191.87 76.5312 190.672 76.5312 189.422 76.5312C188.172 76.5312 187.026 76.5573 185.984 76.6094C184.734 76.6615 183.51 76.6875 182.312 76.6875C181.062 76.7396 179.604 76.8177 177.938 76.9219C176.479 77.026 174.734 77.1302 172.703 77.2344C170.672 77.3385 168.328 77.5208 165.672 77.7812C166.818 77.0521 167.755 76.349 168.484 75.6719C169.214 74.9427 169.786 74.2917 170.203 73.7188C170.724 73.0417 171.115 72.3646 171.375 71.6875C171.531 71.2708 171.661 70.3594 171.766 68.9531C171.922 67.5469 172.052 65.8281 172.156 63.7969C172.312 61.7656 172.417 59.5 172.469 57C172.573 54.5 172.651 51.974 172.703 49.4219C172.807 46.8177 172.885 44.2917 172.938 41.8438C172.99 39.3438 173.016 37.1042 173.016 35.125C173.068 33.0938 173.094 31.401 173.094 30.0469C173.094 28.6927 173.094 27.8333 173.094 27.4688C172.938 26.6875 172.703 25.9062 172.391 25.125C172.13 24.4479 171.714 23.7448 171.141 23.0156C170.568 22.2865 169.812 21.6094 168.875 20.9844ZM232.163 45.3594C232.423 45.0469 232.579 44.474 232.631 43.6406C232.735 42.7552 232.944 41.7656 233.256 40.6719C233.621 39.5781 234.22 38.4323 235.053 37.2344C235.886 36.0365 237.241 34.9167 239.116 33.875C240.939 32.8333 242.709 32.2083 244.428 32C246.147 31.7917 247.788 31.8698 249.35 32.2344C250.913 32.599 252.371 33.1719 253.725 33.9531C255.131 34.7344 256.407 35.5938 257.553 36.5312C258.334 37.1562 258.959 38.0677 259.428 39.2656C259.897 40.4115 260.261 41.7135 260.522 43.1719C260.782 44.6302 260.965 46.1667 261.069 47.7812C261.225 49.3438 261.329 50.8802 261.381 52.3906C261.433 53.849 261.459 55.2031 261.459 56.4531C261.511 57.651 261.616 58.6406 261.772 59.4219C261.98 60.5677 262.345 61.5573 262.866 62.3906C263.386 63.1719 263.959 63.849 264.584 64.4219C265.209 64.9427 265.834 65.3594 266.459 65.6719C267.084 65.9844 267.631 66.2188 268.1 66.375C268.413 66.5312 268.699 66.6354 268.959 66.6875C269.48 66.8958 269.845 66.8958 270.053 66.6875C269.741 67.4167 269.454 68.0417 269.194 68.5625C268.933 69.0833 268.725 69.526 268.569 69.8906C268.36 70.3073 268.178 70.6458 268.022 70.9062C267.866 71.2188 267.683 71.5052 267.475 71.7656C267.319 72.026 267.11 72.3125 266.85 72.625C266.59 72.9375 266.329 73.276 266.069 73.6406C265.392 73.3802 264.741 73.0677 264.116 72.7031C263.543 72.3385 263.022 72 262.553 71.6875C261.98 71.3229 261.459 70.9583 260.991 70.5938C260.522 70.2292 260.079 69.8125 259.663 69.3438C259.298 68.9271 258.907 68.4844 258.491 68.0156C258.126 67.5469 257.814 67.026 257.553 66.4531C257.241 67.1302 256.485 68.0938 255.288 69.3438C254.142 70.5938 252.631 71.7396 250.756 72.7812C248.881 73.7708 246.694 74.474 244.194 74.8906C241.746 75.3073 239.038 75.0208 236.069 74.0312C234.767 73.6146 233.543 73.0156 232.397 72.2344C231.251 71.401 230.261 70.4115 229.428 69.2656C228.647 68.1198 228.074 66.8177 227.709 65.3594C227.397 63.849 227.423 62.1823 227.788 60.3594C228.152 58.5365 228.803 57 229.741 55.75C230.678 54.5 231.798 53.4844 233.1 52.7031C234.402 51.9219 235.86 51.3229 237.475 50.9062C239.09 50.4896 240.756 50.2031 242.475 50.0469C243.829 49.9948 245.183 50.0729 246.538 50.2812C247.683 50.4896 248.881 50.8802 250.131 51.4531C251.381 51.974 252.449 52.7812 253.334 53.875C253.282 51.1146 253.178 48.9271 253.022 47.3125C252.918 45.6458 252.814 44.3698 252.709 43.4844C252.501 42.4427 252.319 41.7135 252.163 41.2969C251.902 40.9323 251.616 40.5156 251.303 40.0469C251.043 39.5781 250.704 39.1615 250.288 38.7969C249.871 38.3802 249.35 38.0417 248.725 37.7812C248.1 37.5208 247.371 37.4167 246.538 37.4688C245.652 37.5208 244.949 37.7552 244.428 38.1719C243.907 38.5885 243.491 39.0833 243.178 39.6562C242.918 40.1771 242.761 40.75 242.709 41.375C242.657 42 242.683 42.5469 242.788 43.0156C242.892 43.3281 243.048 43.6667 243.256 44.0312C243.465 44.3438 243.751 44.6823 244.116 45.0469C244.48 45.4115 244.975 45.724 245.6 45.9844C244.402 46.1406 243.334 46.2708 242.397 46.375C241.459 46.4271 240.652 46.5052 239.975 46.6094C239.194 46.7135 238.517 46.7917 237.944 46.8438C237.371 46.8958 236.694 47 235.913 47.1562C235.235 47.2604 234.402 47.3906 233.413 47.5469C232.423 47.7031 231.277 47.9115 229.975 48.1719C230.288 47.8073 230.574 47.4688 230.834 47.1562C231.095 46.7917 231.329 46.4792 231.538 46.2188C231.746 45.9062 231.954 45.6198 232.163 45.3594ZM243.881 54.6562C242.944 54.7083 242.006 54.9427 241.069 55.3594C240.131 55.724 239.298 56.2708 238.569 57C237.84 57.6771 237.215 58.4844 236.694 59.4219C236.225 60.3073 235.991 61.2969 235.991 62.3906C235.991 63.4844 236.251 64.4479 236.772 65.2812C237.345 66.0625 238.074 66.7135 238.959 67.2344C239.897 67.7552 240.886 68.0677 241.928 68.1719C243.022 68.276 244.09 68.1719 245.131 67.8594C246.121 67.4948 247.058 66.9219 247.944 66.1406C248.829 65.3073 249.584 64.4219 250.209 63.4844C250.834 62.4948 251.277 61.5312 251.538 60.5938C251.798 59.6042 251.824 58.7969 251.616 58.1719C251.199 56.8177 250.261 55.8802 248.803 55.3594C247.345 54.7865 245.704 54.5521 243.881 54.6562ZM265.294 68.4062C265.658 66.6875 265.919 65.1771 266.075 63.875C266.283 62.5208 266.44 61.401 266.544 60.5156C266.648 59.474 266.7 58.5885 266.7 57.8594C266.648 56.974 266.596 55.9323 266.544 54.7344C266.544 53.4844 266.492 52.2604 266.388 51.0625C266.335 49.8125 266.257 48.7188 266.153 47.7812C266.049 46.7917 265.919 46.0885 265.763 45.6719C265.554 45.2552 265.268 44.8125 264.903 44.3438C264.174 43.4583 263.106 42.599 261.7 41.7656C262.898 41.5052 263.914 41.2969 264.747 41.1406C265.632 40.9323 266.361 40.75 266.934 40.5938C267.559 40.3854 268.106 40.2031 268.575 40.0469C268.992 39.8906 269.486 39.7344 270.059 39.5781C270.528 39.474 271.101 39.3438 271.778 39.1875C272.455 39.0312 273.236 38.849 274.122 38.6406L273.888 45.75C275.554 43.7708 277.247 42.2865 278.966 41.2969C280.684 40.3073 282.299 39.6042 283.809 39.1875C285.528 38.6667 287.221 38.4062 288.888 38.4062C290.971 38.5104 292.898 38.849 294.669 39.4219C296.492 39.9948 298.054 40.6719 299.356 41.4531C300.71 42.1823 301.804 42.9635 302.638 43.7969C303.471 44.6302 303.966 45.3594 304.122 45.9844C304.747 48.0156 304.903 49.8906 304.591 51.6094C304.278 53.276 303.861 54.9167 303.341 56.5312C302.872 58.0938 302.455 59.6562 302.091 61.2188C301.778 62.7812 301.908 64.474 302.481 66.2969C302.69 66.7656 302.898 67.2344 303.106 67.7031C303.315 68.1198 303.575 68.5365 303.888 68.9531C304.2 69.3698 304.565 69.7083 304.981 69.9688C304.408 69.9167 303.835 69.8906 303.263 69.8906C302.69 69.8385 302.169 69.7865 301.7 69.7344C301.127 69.6823 300.606 69.6302 300.138 69.5781C299.617 69.526 298.914 69.5 298.028 69.5C296.518 69.5 294.174 69.5781 290.997 69.7344C291.466 68.6406 291.83 67.7292 292.091 67C292.403 66.2188 292.664 65.5938 292.872 65.125C293.08 64.5521 293.236 64.1094 293.341 63.7969C293.966 62.2865 294.33 60.5677 294.434 58.6406C294.591 56.7135 294.46 54.7604 294.044 52.7812C293.888 52.1042 293.627 51.2969 293.263 50.3594C292.898 49.4219 292.403 48.5104 291.778 47.625C291.205 46.7396 290.502 45.9844 289.669 45.3594C288.888 44.7344 287.976 44.3698 286.934 44.2656C285.893 44.1615 284.721 44.4219 283.419 45.0469C282.169 45.6719 280.815 46.8177 279.356 48.4844C278.263 49.8906 277.403 51.6094 276.778 53.6406C276.205 55.3594 275.815 57.5208 275.606 60.125C275.398 62.6771 275.71 65.6719 276.544 69.1094C275.815 69.0052 275.138 68.9531 274.513 68.9531C273.888 68.901 273.367 68.849 272.95 68.7969C272.429 68.7448 271.96 68.6927 271.544 68.6406C271.075 68.6406 270.554 68.6146 269.981 68.5625C269.46 68.5625 268.809 68.5625 268.028 68.5625C267.247 68.5104 266.335 68.4583 265.294 68.4062ZM303.347 42.0781L317.722 42.2344C316.889 45.4115 316.264 48.1198 315.847 50.3594C315.482 52.599 315.248 54.474 315.144 55.9844C314.935 57.7031 314.883 59.1615 314.987 60.3594C315.144 61.4531 315.404 62.625 315.769 63.875C316.081 64.9167 316.55 66.1146 317.175 67.4688C317.8 68.8229 318.633 70.1771 319.675 71.5312C319.05 71.3229 318.373 71.1667 317.644 71.0625C316.915 70.9583 316.237 70.8802 315.612 70.8281C314.883 70.776 314.154 70.776 313.425 70.8281C312.696 70.8802 311.889 70.9583 311.003 71.0625C310.274 71.1667 309.389 71.2969 308.347 71.4531C307.305 71.6094 306.211 71.8177 305.066 72.0781C305.847 69.7344 306.446 67.7031 306.862 65.9844C307.331 64.2656 307.67 62.8333 307.878 61.6875C308.086 60.3333 308.217 59.2396 308.269 58.4062C308.269 57.3646 308.269 56.1927 308.269 54.8906C308.269 53.5365 308.269 52.2344 308.269 50.9844C308.269 49.7344 308.243 48.6406 308.191 47.7031C308.139 46.7135 308.034 46.0885 307.878 45.8281L307.097 45.0469C306.784 44.7865 306.316 44.4219 305.691 43.9531C305.118 43.4323 304.336 42.8073 303.347 42.0781ZM308.894 30.0469C309.987 29.474 311.081 29.3177 312.175 29.5781C313.321 29.8385 314.206 30.3333 314.831 31.0625C315.456 31.7917 315.665 32.651 315.456 33.6406C315.3 34.6302 314.467 35.5938 312.956 36.5312C311.446 37.4167 310.118 37.7292 308.972 37.4688C307.826 37.2083 307.019 36.6615 306.55 35.8281C306.081 34.9948 306.003 34.0312 306.316 32.9375C306.628 31.7917 307.487 30.8281 308.894 30.0469ZM321.947 45.3594C322.207 45.0469 322.364 44.474 322.416 43.6406C322.52 42.7552 322.728 41.7656 323.041 40.6719C323.405 39.5781 324.004 38.4323 324.837 37.2344C325.671 36.0365 327.025 34.9167 328.9 33.875C330.723 32.8333 332.494 32.2083 334.212 32C335.931 31.7917 337.572 31.8698 339.134 32.2344C340.697 32.599 342.155 33.1719 343.509 33.9531C344.916 34.7344 346.192 35.5938 347.337 36.5312C348.119 37.1562 348.744 38.0677 349.212 39.2656C349.681 40.4115 350.046 41.7135 350.306 43.1719C350.567 44.6302 350.749 46.1667 350.853 47.7812C351.009 49.3438 351.114 50.8802 351.166 52.3906C351.218 53.849 351.244 55.2031 351.244 56.4531C351.296 57.651 351.4 58.6406 351.556 59.4219C351.765 60.5677 352.129 61.5573 352.65 62.3906C353.171 63.1719 353.744 63.849 354.369 64.4219C354.994 64.9427 355.619 65.3594 356.244 65.6719C356.869 65.9844 357.416 66.2188 357.884 66.375C358.197 66.5312 358.483 66.6354 358.744 66.6875C359.265 66.8958 359.629 66.8958 359.837 66.6875C359.525 67.4167 359.239 68.0417 358.978 68.5625C358.718 69.0833 358.509 69.526 358.353 69.8906C358.145 70.3073 357.962 70.6458 357.806 70.9062C357.65 71.2188 357.468 71.5052 357.259 71.7656C357.103 72.026 356.895 72.3125 356.634 72.625C356.374 72.9375 356.114 73.276 355.853 73.6406C355.176 73.3802 354.525 73.0677 353.9 72.7031C353.327 72.3385 352.806 72 352.337 71.6875C351.765 71.3229 351.244 70.9583 350.775 70.5938C350.306 70.2292 349.864 69.8125 349.447 69.3438C349.082 68.9271 348.692 68.4844 348.275 68.0156C347.91 67.5469 347.598 67.026 347.337 66.4531C347.025 67.1302 346.27 68.0938 345.072 69.3438C343.926 70.5938 342.416 71.7396 340.541 72.7812C338.666 73.7708 336.478 74.474 333.978 74.8906C331.53 75.3073 328.822 75.0208 325.853 74.0312C324.551 73.6146 323.327 73.0156 322.181 72.2344C321.035 71.401 320.046 70.4115 319.212 69.2656C318.431 68.1198 317.858 66.8177 317.494 65.3594C317.181 63.849 317.207 62.1823 317.572 60.3594C317.936 58.5365 318.587 57 319.525 55.75C320.462 54.5 321.582 53.4844 322.884 52.7031C324.186 51.9219 325.645 51.3229 327.259 50.9062C328.874 50.4896 330.541 50.2031 332.259 50.0469C333.614 49.9948 334.968 50.0729 336.322 50.2812C337.468 50.4896 338.666 50.8802 339.916 51.4531C341.166 51.974 342.233 52.7812 343.119 53.875C343.067 51.1146 342.962 48.9271 342.806 47.3125C342.702 45.6458 342.598 44.3698 342.494 43.4844C342.285 42.4427 342.103 41.7135 341.947 41.2969C341.686 40.9323 341.4 40.5156 341.087 40.0469C340.827 39.5781 340.489 39.1615 340.072 38.7969C339.655 38.3802 339.134 38.0417 338.509 37.7812C337.884 37.5208 337.155 37.4167 336.322 37.4688C335.436 37.5208 334.733 37.7552 334.212 38.1719C333.692 38.5885 333.275 39.0833 332.962 39.6562C332.702 40.1771 332.546 40.75 332.494 41.375C332.442 42 332.468 42.5469 332.572 43.0156C332.676 43.3281 332.832 43.6667 333.041 44.0312C333.249 44.3438 333.535 44.6823 333.9 45.0469C334.265 45.4115 334.759 45.724 335.384 45.9844C334.186 46.1406 333.119 46.2708 332.181 46.375C331.244 46.4271 330.436 46.5052 329.759 46.6094C328.978 46.7135 328.301 46.7917 327.728 46.8438C327.155 46.8958 326.478 47 325.697 47.1562C325.02 47.2604 324.186 47.3906 323.197 47.5469C322.207 47.7031 321.061 47.9115 319.759 48.1719C320.072 47.8073 320.358 47.4688 320.619 47.1562C320.879 46.7917 321.114 46.4792 321.322 46.2188C321.53 45.9062 321.739 45.6198 321.947 45.3594ZM333.666 54.6562C332.728 54.7083 331.791 54.9427 330.853 55.3594C329.916 55.724 329.082 56.2708 328.353 57C327.624 57.6771 326.999 58.4844 326.478 59.4219C326.009 60.3073 325.775 61.2969 325.775 62.3906C325.775 63.4844 326.035 64.4479 326.556 65.2812C327.129 66.0625 327.858 66.7135 328.744 67.2344C329.681 67.7552 330.671 68.0677 331.712 68.1719C332.806 68.276 333.874 68.1719 334.916 67.8594C335.905 67.4948 336.843 66.9219 337.728 66.1406C338.614 65.3073 339.369 64.4219 339.994 63.4844C340.619 62.4948 341.061 61.5312 341.322 60.5938C341.582 59.6042 341.608 58.7969 341.4 58.1719C340.983 56.8177 340.046 55.8802 338.587 55.3594C337.129 54.7865 335.489 54.5521 333.666 54.6562Z" fill="url(#paint0_linear_279_368)"/>
<path d="M134 34C134 37.3137 131.314 40 128 40C124.686 40 122 37.3137 122 34C122 30.6863 124.686 28 128 28C131.314 28 134 30.6863 134 34Z" fill="#BC9C34"/>
<defs>
<linearGradient id="paint0_linear_279_368" x1="4" y1="48.5" x2="358" y2="48.5" gradientUnits="userSpaceOnUse">
<stop stop-color="#575757"/>
<stop offset="0.845" stop-color="#F0C021"/>
</linearGradient>
</defs>
</svg>
