<svg width="420" height="103" viewBox="0 0 420 103" fill="none" xmlns="http://www.w3.org/2000/svg">
<g filter="url(#filter0_d_279_368)">
<mask id="path-1-outside-1_279_368" maskUnits="userSpaceOnUse" x="3" y="10" width="395" height="83" fill="black">
<rect fill="white" x="3" y="10" width="395" height="83"/>
<path d="M4 71.8H7.6V80.44L14.96 87.8H40.72L4.8 45.48V34.44L12.24 27H43.68L49.28 32.6V26.2H52.88V46.2H49.28V37.56L41.92 30.2H18.56L54.48 72.52V83.56L47.04 91H13.2L7.6 85.4V91.8H4V71.8ZM89.3156 83.56L81.8756 91H65.9556L58.5156 83.56V32.6H52.9156V29.4H69.0756L75.7156 36.04V47.8H86.9156V51H75.7156V87.8H80.1156L86.8356 81.08L89.3156 83.56ZM130.944 48.84L128.464 51.32L123.344 46.2H116.544L110.944 51.8V87.8H117.344V91H99.9837L92.5437 83.56V46.2H86.1437V43H103.504L109.184 48.6L114.784 43H125.104L130.944 48.84ZM135.99 91L128.55 83.56V50.44L135.99 43H166.71L174.15 50.44V63.56L166.71 71H146.95V87.8H165.35L172.07 81.08L174.55 83.56L167.11 91H135.99ZM146.95 46.2V67.8H155.75V46.2H146.95ZM182.402 91L175.762 84.36V72.04L182.402 65.4H202.962V46.2H194.562V59H177.762V49.64L184.402 43H214.722L221.362 49.64V87.8H227.762V91H209.602L204.802 86.12L199.922 91H182.402ZM194.562 68.6V87.8H198.162L202.962 83V68.6H194.562ZM315.4 87.8V91H297.64L291 84.36V46.2H285.4L279.8 51.8V87.8H284.6V91H261.4V46.2H255.8L250.2 51.8V87.8H255V91H225.4V87.8H231.8V46.2H225.4V43H242.76L248.44 48.6L254.04 43H272.36L278.04 48.6L283.64 43H301.56L309 50.44V87.8H315.4ZM327.526 36.6L315.366 24.36L327.606 12.2L339.766 24.44L327.526 36.6ZM344.166 87.8V91H326.806L319.366 83.56V46.2H312.966V43H330.326L337.766 50.44V87.8H344.166ZM340.141 43H369.181V46.2H364.381L373.181 59.96L382.781 46.2H378.621V43H392.861V46.2H387.101L375.181 63.16L390.861 87.8H396.061V91H365.981V87.8H371.821L361.741 72.04L350.701 87.8H356.461V91H340.941V87.8H346.381L359.741 68.76L345.341 46.2H340.141V43Z"/>
</mask>
<path d="M4 71.8H7.6V80.44L14.96 87.8H40.72L4.8 45.48V34.44L12.24 27H43.68L49.28 32.6V26.2H52.88V46.2H49.28V37.56L41.92 30.2H18.56L54.48 72.52V83.56L47.04 91H13.2L7.6 85.4V91.8H4V71.8ZM89.3156 83.56L81.8756 91H65.9556L58.5156 83.56V32.6H52.9156V29.4H69.0756L75.7156 36.04V47.8H86.9156V51H75.7156V87.8H80.1156L86.8356 81.08L89.3156 83.56ZM130.944 48.84L128.464 51.32L123.344 46.2H116.544L110.944 51.8V87.8H117.344V91H99.9837L92.5437 83.56V46.2H86.1437V43H103.504L109.184 48.6L114.784 43H125.104L130.944 48.84ZM135.99 91L128.55 83.56V50.44L135.99 43H166.71L174.15 50.44V63.56L166.71 71H146.95V87.8H165.35L172.07 81.08L174.55 83.56L167.11 91H135.99ZM146.95 46.2V67.8H155.75V46.2H146.95ZM182.402 91L175.762 84.36V72.04L182.402 65.4H202.962V46.2H194.562V59H177.762V49.64L184.402 43H214.722L221.362 49.64V87.8H227.762V91H209.602L204.802 86.12L199.922 91H182.402ZM194.562 68.6V87.8H198.162L202.962 83V68.6H194.562ZM315.4 87.8V91H297.64L291 84.36V46.2H285.4L279.8 51.8V87.8H284.6V91H261.4V46.2H255.8L250.2 51.8V87.8H255V91H225.4V87.8H231.8V46.2H225.4V43H242.76L248.44 48.6L254.04 43H272.36L278.04 48.6L283.64 43H301.56L309 50.44V87.8H315.4ZM327.526 36.6L315.366 24.36L327.606 12.2L339.766 24.44L327.526 36.6ZM344.166 87.8V91H326.806L319.366 83.56V46.2H312.966V43H330.326L337.766 50.44V87.8H344.166ZM340.141 43H369.181V46.2H364.381L373.181 59.96L382.781 46.2H378.621V43H392.861V46.2H387.101L375.181 63.16L390.861 87.8H396.061V91H365.981V87.8H371.821L361.741 72.04L350.701 87.8H356.461V91H340.941V87.8H346.381L359.741 68.76L345.341 46.2H340.141V43Z" fill="url(#paint0_linear_279_368)"/>
<path d="M4 71.8V70.8H3V71.8H4ZM7.6 71.8H8.6V70.8H7.6V71.8ZM7.6 80.44H6.6V80.8542L6.89289 81.1471L7.6 80.44ZM14.96 87.8L14.2529 88.5071L14.5458 88.8H14.96V87.8ZM40.72 87.8V88.8H42.8804L41.4824 87.1529L40.72 87.8ZM4.8 45.48H3.8V45.8472L4.0376 46.1271L4.8 45.48ZM4.8 34.44L4.09289 33.7329L3.8 34.0258V34.44H4.8ZM12.24 27V26H11.8258L11.5329 26.2929L12.24 27ZM43.68 27L44.3871 26.2929L44.0942 26H43.68V27ZM49.28 32.6L48.5729 33.3071L50.28 35.0142V32.6H49.28ZM49.28 26.2V25.2H48.28V26.2H49.28ZM52.88 26.2H53.88V25.2H52.88V26.2ZM52.88 46.2V47.2H53.88V46.2H52.88ZM49.28 46.2H48.28V47.2H49.28V46.2ZM49.28 37.56H50.28V37.1458L49.9871 36.8529L49.28 37.56ZM41.92 30.2L42.6271 29.4929L42.3342 29.2H41.92V30.2ZM18.56 30.2V29.2H16.3996L17.7976 30.8471L18.56 30.2ZM54.48 72.52H55.48V72.1528L55.2424 71.8729L54.48 72.52ZM54.48 83.56L55.1871 84.2671L55.48 83.9742V83.56H54.48ZM47.04 91V92H47.4542L47.7471 91.7071L47.04 91ZM13.2 91L12.4929 91.7071L12.7858 92H13.2V91ZM7.6 85.4L8.30711 84.6929L6.6 82.9858V85.4H7.6ZM7.6 91.8V92.8H8.6V91.8H7.6ZM4 91.8H3V92.8H4V91.8ZM4 72.8H7.6V70.8H4V72.8ZM6.6 71.8V80.44H8.6V71.8H6.6ZM6.89289 81.1471L14.2529 88.5071L15.6671 87.0929L8.30711 79.7329L6.89289 81.1471ZM14.96 88.8H40.72V86.8H14.96V88.8ZM41.4824 87.1529L5.5624 44.8329L4.0376 46.1271L39.9576 88.4471L41.4824 87.1529ZM5.8 45.48V34.44H3.8V45.48H5.8ZM5.50711 35.1471L12.9471 27.7071L11.5329 26.2929L4.09289 33.7329L5.50711 35.1471ZM12.24 28H43.68V26H12.24V28ZM42.9729 27.7071L48.5729 33.3071L49.9871 31.8929L44.3871 26.2929L42.9729 27.7071ZM50.28 32.6V26.2H48.28V32.6H50.28ZM49.28 27.2H52.88V25.2H49.28V27.2ZM51.88 26.2V46.2H53.88V26.2H51.88ZM52.88 45.2H49.28V47.2H52.88V45.2ZM50.28 46.2V37.56H48.28V46.2H50.28ZM49.9871 36.8529L42.6271 29.4929L41.2129 30.9071L48.5729 38.2671L49.9871 36.8529ZM41.92 29.2H18.56V31.2H41.92V29.2ZM17.7976 30.8471L53.7176 73.1671L55.2424 71.8729L19.3224 29.5529L17.7976 30.8471ZM53.48 72.52V83.56H55.48V72.52H53.48ZM53.7729 82.8529L46.3329 90.2929L47.7471 91.7071L55.1871 84.2671L53.7729 82.8529ZM47.04 90H13.2V92H47.04V90ZM13.9071 90.2929L8.30711 84.6929L6.89289 86.1071L12.4929 91.7071L13.9071 90.2929ZM6.6 85.4V91.8H8.6V85.4H6.6ZM7.6 90.8H4V92.8H7.6V90.8ZM5 91.8V71.8H3V91.8H5ZM89.3156 83.56L90.0227 84.2671L90.7298 83.56L90.0227 82.8529L89.3156 83.56ZM81.8756 91V92H82.2898L82.5827 91.7071L81.8756 91ZM65.9556 91L65.2485 91.7071L65.5414 92H65.9556V91ZM58.5156 83.56H57.5156V83.9742L57.8085 84.2671L58.5156 83.56ZM58.5156 32.6H59.5156V31.6H58.5156V32.6ZM52.9156 32.6H51.9156V33.6H52.9156V32.6ZM52.9156 29.4V28.4H51.9156V29.4H52.9156ZM69.0756 29.4L69.7827 28.6929L69.4898 28.4H69.0756V29.4ZM75.7156 36.04H76.7156V35.6258L76.4227 35.3329L75.7156 36.04ZM75.7156 47.8H74.7156V48.8H75.7156V47.8ZM86.9156 47.8H87.9156V46.8H86.9156V47.8ZM86.9156 51V52H87.9156V51H86.9156ZM75.7156 51V50H74.7156V51H75.7156ZM75.7156 87.8H74.7156V88.8H75.7156V87.8ZM80.1156 87.8V88.8H80.5298L80.8227 88.5071L80.1156 87.8ZM86.8356 81.08L87.5427 80.3729L86.8356 79.6658L86.1285 80.3729L86.8356 81.08ZM88.6085 82.8529L81.1685 90.2929L82.5827 91.7071L90.0227 84.2671L88.6085 82.8529ZM81.8756 90H65.9556V92H81.8756V90ZM66.6627 90.2929L59.2227 82.8529L57.8085 84.2671L65.2485 91.7071L66.6627 90.2929ZM59.5156 83.56V32.6H57.5156V83.56H59.5156ZM58.5156 31.6H52.9156V33.6H58.5156V31.6ZM53.9156 32.6V29.4H51.9156V32.6H53.9156ZM52.9156 30.4H69.0756V28.4H52.9156V30.4ZM68.3685 30.1071L75.0085 36.7471L76.4227 35.3329L69.7827 28.6929L68.3685 30.1071ZM74.7156 36.04V47.8H76.7156V36.04H74.7156ZM75.7156 48.8H86.9156V46.8H75.7156V48.8ZM85.9156 47.8V51H87.9156V47.8H85.9156ZM86.9156 50H75.7156V52H86.9156V50ZM74.7156 51V87.8H76.7156V51H74.7156ZM75.7156 88.8H80.1156V86.8H75.7156V88.8ZM80.8227 88.5071L87.5427 81.7871L86.1285 80.3729L79.4085 87.0929L80.8227 88.5071ZM86.1285 81.7871L88.6085 84.2671L90.0227 82.8529L87.5427 80.3729L86.1285 81.7871ZM130.944 48.84L131.651 49.5471L132.358 48.84L131.651 48.1329L130.944 48.84ZM128.464 51.32L127.757 52.0271L128.464 52.7342L129.171 52.0271L128.464 51.32ZM123.344 46.2L124.051 45.4929L123.758 45.2H123.344V46.2ZM116.544 46.2V45.2H116.13L115.837 45.4929L116.544 46.2ZM110.944 51.8L110.237 51.0929L109.944 51.3858V51.8H110.944ZM110.944 87.8H109.944V88.8H110.944V87.8ZM117.344 87.8H118.344V86.8H117.344V87.8ZM117.344 91V92H118.344V91H117.344ZM99.9837 91L99.2766 91.7071L99.5695 92H99.9837V91ZM92.5437 83.56H91.5437V83.9742L91.8366 84.2671L92.5437 83.56ZM92.5437 46.2H93.5437V45.2H92.5437V46.2ZM86.1437 46.2H85.1437V47.2H86.1437V46.2ZM86.1437 43V42H85.1437V43H86.1437ZM103.504 43L104.206 42.2879L103.914 42H103.504V43ZM109.184 48.6L108.482 49.3121L109.189 50.0092L109.891 49.3071L109.184 48.6ZM114.784 43V42H114.37L114.077 42.2929L114.784 43ZM125.104 43L125.811 42.2929L125.518 42H125.104V43ZM130.237 48.1329L127.757 50.6129L129.171 52.0271L131.651 49.5471L130.237 48.1329ZM129.171 50.6129L124.051 45.4929L122.637 46.9071L127.757 52.0271L129.171 50.6129ZM123.344 45.2H116.544V47.2H123.344V45.2ZM115.837 45.4929L110.237 51.0929L111.651 52.5071L117.251 46.9071L115.837 45.4929ZM109.944 51.8V87.8H111.944V51.8H109.944ZM110.944 88.8H117.344V86.8H110.944V88.8ZM116.344 87.8V91H118.344V87.8H116.344ZM117.344 90H99.9837V92H117.344V90ZM100.691 90.2929L93.2509 82.8529L91.8366 84.2671L99.2766 91.7071L100.691 90.2929ZM93.5437 83.56V46.2H91.5437V83.56H93.5437ZM92.5437 45.2H86.1437V47.2H92.5437V45.2ZM87.1437 46.2V43H85.1437V46.2H87.1437ZM86.1437 44H103.504V42H86.1437V44ZM102.802 43.7121L108.482 49.3121L109.886 47.8879L104.206 42.2879L102.802 43.7121ZM109.891 49.3071L115.491 43.7071L114.077 42.2929L108.477 47.8929L109.891 49.3071ZM114.784 44H125.104V42H114.784V44ZM124.397 43.7071L130.237 49.5471L131.651 48.1329L125.811 42.2929L124.397 43.7071ZM135.99 91L135.283 91.7071L135.576 92H135.99V91ZM128.55 83.56H127.55V83.9742L127.843 84.2671L128.55 83.56ZM128.55 50.44L127.843 49.7329L127.55 50.0258V50.44H128.55ZM135.99 43V42H135.576L135.283 42.2929L135.99 43ZM166.71 43L167.417 42.2929L167.124 42H166.71V43ZM174.15 50.44H175.15V50.0258L174.857 49.7329L174.15 50.44ZM174.15 63.56L174.857 64.2671L175.15 63.9742V63.56H174.15ZM166.71 71V72H167.124L167.417 71.7071L166.71 71ZM146.95 71V70H145.95V71H146.95ZM146.95 87.8H145.95V88.8H146.95V87.8ZM165.35 87.8V88.8H165.764L166.057 88.5071L165.35 87.8ZM172.07 81.08L172.777 80.3729L172.07 79.6658L171.363 80.3729L172.07 81.08ZM174.55 83.56L175.257 84.2671L175.964 83.56L175.257 82.8529L174.55 83.56ZM167.11 91V92H167.524L167.817 91.7071L167.11 91ZM146.95 46.2V45.2H145.95V46.2H146.95ZM146.95 67.8H145.95V68.8H146.95V67.8ZM155.75 67.8V68.8H156.75V67.8H155.75ZM155.75 46.2H156.75V45.2H155.75V46.2ZM136.697 90.2929L129.257 82.8529L127.843 84.2671L135.283 91.7071L136.697 90.2929ZM129.55 83.56V50.44H127.55V83.56H129.55ZM129.257 51.1471L136.697 43.7071L135.283 42.2929L127.843 49.7329L129.257 51.1471ZM135.99 44H166.71V42H135.99V44ZM166.003 43.7071L173.443 51.1471L174.857 49.7329L167.417 42.2929L166.003 43.7071ZM173.15 50.44V63.56H175.15V50.44H173.15ZM173.443 62.8529L166.003 70.2929L167.417 71.7071L174.857 64.2671L173.443 62.8529ZM166.71 70H146.95V72H166.71V70ZM145.95 71V87.8H147.95V71H145.95ZM146.95 88.8H165.35V86.8H146.95V88.8ZM166.057 88.5071L172.777 81.7871L171.363 80.3729L164.643 87.0929L166.057 88.5071ZM171.363 81.7871L173.843 84.2671L175.257 82.8529L172.777 80.3729L171.363 81.7871ZM173.843 82.8529L166.403 90.2929L167.817 91.7071L175.257 84.2671L173.843 82.8529ZM167.11 90H135.99V92H167.11V90ZM145.95 46.2V67.8H147.95V46.2H145.95ZM146.95 68.8H155.75V66.8H146.95V68.8ZM156.75 67.8V46.2H154.75V67.8H156.75ZM155.75 45.2H146.95V47.2H155.75V45.2ZM182.402 91L181.695 91.7071L181.988 92H182.402V91ZM175.762 84.36H174.762V84.7742L175.055 85.0671L175.762 84.36ZM175.762 72.04L175.055 71.3329L174.762 71.6258V72.04H175.762ZM182.402 65.4V64.4H181.988L181.695 64.6929L182.402 65.4ZM202.962 65.4V66.4H203.962V65.4H202.962ZM202.962 46.2H203.962V45.2H202.962V46.2ZM194.562 46.2V45.2H193.562V46.2H194.562ZM194.562 59V60H195.562V59H194.562ZM177.762 59H176.762V60H177.762V59ZM177.762 49.64L177.055 48.9329L176.762 49.2258V49.64H177.762ZM184.402 43V42H183.988L183.695 42.2929L184.402 43ZM214.723 43L215.43 42.2929L215.137 42H214.723V43ZM221.363 49.64H222.363V49.2258L222.07 48.9329L221.363 49.64ZM221.363 87.8H220.363V88.8H221.363V87.8ZM227.762 87.8H228.762V86.8H227.762V87.8ZM227.762 91V92H228.762V91H227.762ZM209.602 91L208.89 91.7012L209.183 92H209.602V91ZM204.802 86.12L205.515 85.4188L204.808 84.6999L204.095 85.4129L204.802 86.12ZM199.923 91V92H200.337L200.63 91.7071L199.923 91ZM194.562 68.6V67.6H193.562V68.6H194.562ZM194.562 87.8H193.562V88.8H194.562V87.8ZM198.162 87.8V88.8H198.577L198.87 88.5071L198.162 87.8ZM202.962 83L203.67 83.7071L203.962 83.4142V83H202.962ZM202.962 68.6H203.962V67.6H202.962V68.6ZM183.11 90.2929L176.47 83.6529L175.055 85.0671L181.695 91.7071L183.11 90.2929ZM176.762 84.36V72.04H174.762V84.36H176.762ZM176.47 72.7471L183.11 66.1071L181.695 64.6929L175.055 71.3329L176.47 72.7471ZM182.402 66.4H202.962V64.4H182.402V66.4ZM203.962 65.4V46.2H201.962V65.4H203.962ZM202.962 45.2H194.562V47.2H202.962V45.2ZM193.562 46.2V59H195.562V46.2H193.562ZM194.562 58H177.762V60H194.562V58ZM178.762 59V49.64H176.762V59H178.762ZM178.47 50.3471L185.11 43.7071L183.695 42.2929L177.055 48.9329L178.47 50.3471ZM184.402 44H214.723V42H184.402V44ZM214.015 43.7071L220.655 50.3471L222.07 48.9329L215.43 42.2929L214.015 43.7071ZM220.363 49.64V87.8H222.363V49.64H220.363ZM221.363 88.8H227.762V86.8H221.363V88.8ZM226.762 87.8V91H228.762V87.8H226.762ZM227.762 90H209.602V92H227.762V90ZM210.315 90.2988L205.515 85.4188L204.09 86.8212L208.89 91.7012L210.315 90.2988ZM204.095 85.4129L199.215 90.2929L200.63 91.7071L205.51 86.8271L204.095 85.4129ZM199.923 90H182.402V92H199.923V90ZM193.562 68.6V87.8H195.562V68.6H193.562ZM194.562 88.8H198.162V86.8H194.562V88.8ZM198.87 88.5071L203.67 83.7071L202.255 82.2929L197.455 87.0929L198.87 88.5071ZM203.962 83V68.6H201.962V83H203.962ZM202.962 67.6H194.562V69.6H202.962V67.6ZM315.4 87.8H316.4V86.8H315.4V87.8ZM315.4 91V92H316.4V91H315.4ZM297.64 91L296.933 91.7071L297.226 92H297.64V91ZM291 84.36H290V84.7742L290.293 85.0671L291 84.36ZM291 46.2H292V45.2H291V46.2ZM285.4 46.2V45.2H284.986L284.693 45.4929L285.4 46.2ZM279.8 51.8L279.093 51.0929L278.8 51.3858V51.8H279.8ZM279.8 87.8H278.8V88.8H279.8V87.8ZM284.6 87.8H285.6V86.8H284.6V87.8ZM284.6 91V92H285.6V91H284.6ZM261.4 91H260.4V92H261.4V91ZM261.4 46.2H262.4V45.2H261.4V46.2ZM255.8 46.2V45.2H255.386L255.093 45.4929L255.8 46.2ZM250.2 51.8L249.493 51.0929L249.2 51.3858V51.8H250.2ZM250.2 87.8H249.2V88.8H250.2V87.8ZM255 87.8H256V86.8H255V87.8ZM255 91V92H256V91H255ZM225.4 91H224.4V92H225.4V91ZM225.4 87.8V86.8H224.4V87.8H225.4ZM231.8 87.8V88.8H232.8V87.8H231.8ZM231.8 46.2H232.8V45.2H231.8V46.2ZM225.4 46.2H224.4V47.2H225.4V46.2ZM225.4 43V42H224.4V43H225.4ZM242.76 43L243.462 42.2879L243.17 42H242.76V43ZM248.44 48.6L247.738 49.3121L248.445 50.0092L249.147 49.3071L248.44 48.6ZM254.04 43V42H253.626L253.333 42.2929L254.04 43ZM272.36 43L273.062 42.2879L272.77 42H272.36V43ZM278.04 48.6L277.338 49.3121L278.045 50.0092L278.747 49.3071L278.04 48.6ZM283.64 43V42H283.226L282.933 42.2929L283.64 43ZM301.56 43L302.267 42.2929L301.974 42H301.56V43ZM309 50.44H310V50.0258L309.707 49.7329L309 50.44ZM309 87.8H308V88.8H309V87.8ZM314.4 87.8V91H316.4V87.8H314.4ZM315.4 90H297.64V92H315.4V90ZM298.347 90.2929L291.707 83.6529L290.293 85.0671L296.933 91.7071L298.347 90.2929ZM292 84.36V46.2H290V84.36H292ZM291 45.2H285.4V47.2H291V45.2ZM284.693 45.4929L279.093 51.0929L280.507 52.5071L286.107 46.9071L284.693 45.4929ZM278.8 51.8V87.8H280.8V51.8H278.8ZM279.8 88.8H284.6V86.8H279.8V88.8ZM283.6 87.8V91H285.6V87.8H283.6ZM284.6 90H261.4V92H284.6V90ZM262.4 91V46.2H260.4V91H262.4ZM261.4 45.2H255.8V47.2H261.4V45.2ZM255.093 45.4929L249.493 51.0929L250.907 52.5071L256.507 46.9071L255.093 45.4929ZM249.2 51.8V87.8H251.2V51.8H249.2ZM250.2 88.8H255V86.8H250.2V88.8ZM254 87.8V91H256V87.8H254ZM255 90H225.4V92H255V90ZM226.4 91V87.8H224.4V91H226.4ZM225.4 88.8H231.8V86.8H225.4V88.8ZM232.8 87.8V46.2H230.8V87.8H232.8ZM231.8 45.2H225.4V47.2H231.8V45.2ZM226.4 46.2V43H224.4V46.2H226.4ZM225.4 44H242.76V42H225.4V44ZM242.058 43.7121L247.738 49.3121L249.142 47.8879L243.462 42.2879L242.058 43.7121ZM249.147 49.3071L254.747 43.7071L253.333 42.2929L247.733 47.8929L249.147 49.3071ZM254.04 44H272.36V42H254.04V44ZM271.658 43.7121L277.338 49.3121L278.742 47.8879L273.062 42.2879L271.658 43.7121ZM278.747 49.3071L284.347 43.7071L282.933 42.2929L277.333 47.8929L278.747 49.3071ZM283.64 44H301.56V42H283.64V44ZM300.853 43.7071L308.293 51.1471L309.707 49.7329L302.267 42.2929L300.853 43.7071ZM308 50.44V87.8H310V50.44H308ZM309 88.8H315.4V86.8H309V88.8ZM327.526 36.6L326.816 37.3048L327.521 38.0142L328.23 37.3094L327.526 36.6ZM315.366 24.36L314.661 23.6506L313.951 24.3554L314.656 25.0648L315.366 24.36ZM327.606 12.2L328.315 11.4952L327.61 10.7858L326.901 11.4906L327.606 12.2ZM339.766 24.44L340.47 25.1494L341.18 24.4446L340.475 23.7352L339.766 24.44ZM344.166 87.8H345.166V86.8H344.166V87.8ZM344.166 91V92H345.166V91H344.166ZM326.806 91L326.099 91.7071L326.391 92H326.806V91ZM319.366 83.56H318.366V83.9742L318.659 84.2671L319.366 83.56ZM319.366 46.2H320.366V45.2H319.366V46.2ZM312.966 46.2H311.966V47.2H312.966V46.2ZM312.966 43V42H311.966V43H312.966ZM330.326 43L331.033 42.2929L330.74 42H330.326V43ZM337.766 50.44H338.766V50.0258L338.473 49.7329L337.766 50.44ZM337.766 87.8H336.766V88.8H337.766V87.8ZM328.235 35.8952L316.075 23.6552L314.656 25.0648L326.816 37.3048L328.235 35.8952ZM316.07 25.0694L328.31 12.9094L326.901 11.4906L314.661 23.6506L316.07 25.0694ZM326.896 12.9048L339.056 25.1448L340.475 23.7352L328.315 11.4952L326.896 12.9048ZM339.061 23.7306L326.821 35.8906L328.23 37.3094L340.47 25.1494L339.061 23.7306ZM343.166 87.8V91H345.166V87.8H343.166ZM344.166 90H326.806V92H344.166V90ZM327.513 90.2929L320.073 82.8529L318.659 84.2671L326.099 91.7071L327.513 90.2929ZM320.366 83.56V46.2H318.366V83.56H320.366ZM319.366 45.2H312.966V47.2H319.366V45.2ZM313.966 46.2V43H311.966V46.2H313.966ZM312.966 44H330.326V42H312.966V44ZM329.619 43.7071L337.059 51.1471L338.473 49.7329L331.033 42.2929L329.619 43.7071ZM336.766 50.44V87.8H338.766V50.44H336.766ZM337.766 88.8H344.166V86.8H337.766V88.8ZM340.141 43V42H339.141V43H340.141ZM369.181 43H370.181V42H369.181V43ZM369.181 46.2V47.2H370.181V46.2H369.181ZM364.381 46.2V45.2H362.554L363.538 46.7388L364.381 46.2ZM373.181 59.96L372.338 60.4988L373.144 61.7595L374.001 60.5322L373.181 59.96ZM382.781 46.2L383.601 46.7722L384.698 45.2H382.781V46.2ZM378.621 46.2H377.621V47.2H378.621V46.2ZM378.621 43V42H377.621V43H378.621ZM392.861 43H393.861V42H392.861V43ZM392.861 46.2V47.2H393.861V46.2H392.861ZM387.101 46.2V45.2H386.581L386.283 45.625L387.101 46.2ZM375.181 63.16L374.362 62.585L373.978 63.1324L374.337 63.6969L375.181 63.16ZM390.861 87.8L390.017 88.3369L390.312 88.8H390.861V87.8ZM396.061 87.8H397.061V86.8H396.061V87.8ZM396.061 91V92H397.061V91H396.061ZM365.981 91H364.981V92H365.981V91ZM365.981 87.8V86.8H364.981V87.8H365.981ZM371.821 87.8V88.8H373.647L372.663 87.2612L371.821 87.8ZM361.741 72.04L362.583 71.5012L361.778 70.2431L360.922 71.4663L361.741 72.04ZM350.701 87.8L349.882 87.2263L348.779 88.8H350.701V87.8ZM356.461 87.8H357.461V86.8H356.461V87.8ZM356.461 91V92H357.461V91H356.461ZM340.941 91H339.941V92H340.941V91ZM340.941 87.8V86.8H339.941V87.8H340.941ZM346.381 87.8V88.8H346.901L347.199 88.3744L346.381 87.8ZM359.741 68.76L360.559 69.3344L360.944 68.7863L360.584 68.222L359.741 68.76ZM345.341 46.2L346.184 45.662L345.889 45.2H345.341V46.2ZM340.141 46.2H339.141V47.2H340.141V46.2ZM340.141 44H369.181V42H340.141V44ZM368.181 43V46.2H370.181V43H368.181ZM369.181 45.2H364.381V47.2H369.181V45.2ZM363.538 46.7388L372.338 60.4988L374.023 59.4212L365.223 45.6612L363.538 46.7388ZM374.001 60.5322L383.601 46.7722L381.961 45.6278L372.361 59.3878L374.001 60.5322ZM382.781 45.2H378.621V47.2H382.781V45.2ZM379.621 46.2V43H377.621V46.2H379.621ZM378.621 44H392.861V42H378.621V44ZM391.861 43V46.2H393.861V43H391.861ZM392.861 45.2H387.101V47.2H392.861V45.2ZM386.283 45.625L374.362 62.585L375.999 63.735L387.919 46.775L386.283 45.625ZM374.337 63.6969L390.017 88.3369L391.704 87.2631L376.024 62.6231L374.337 63.6969ZM390.861 88.8H396.061V86.8H390.861V88.8ZM395.061 87.8V91H397.061V87.8H395.061ZM396.061 90H365.981V92H396.061V90ZM366.981 91V87.8H364.981V91H366.981ZM365.981 88.8H371.821V86.8H365.981V88.8ZM372.663 87.2612L362.583 71.5012L360.898 72.5788L370.978 88.3388L372.663 87.2612ZM360.922 71.4663L349.882 87.2263L351.52 88.3737L362.56 72.6137L360.922 71.4663ZM350.701 88.8H356.461V86.8H350.701V88.8ZM355.461 87.8V91H357.461V87.8H355.461ZM356.461 90H340.941V92H356.461V90ZM341.941 91V87.8H339.941V91H341.941ZM340.941 88.8H346.381V86.8H340.941V88.8ZM347.199 88.3744L360.559 69.3344L358.922 68.1856L345.562 87.2256L347.199 88.3744ZM360.584 68.222L346.184 45.662L344.498 46.738L358.898 69.298L360.584 68.222ZM345.341 45.2H340.141V47.2H345.341V45.2ZM341.141 46.2V43H339.141V46.2H341.141Z" fill="black" mask="url(#path-1-outside-1_279_368)"/>
</g>
<defs>
<filter id="filter0_d_279_368" x="0" y="12.2002" width="400.061" height="87.5996" filterUnits="userSpaceOnUse" color-interpolation-filters="sRGB">
<feFlood flood-opacity="0" result="BackgroundImageFix"/>
<feColorMatrix in="SourceAlpha" type="matrix" values="0 0 0 0 0 0 0 0 0 0 0 0 0 0 0 0 0 0 127 0" result="hardAlpha"/>
<feOffset dy="4"/>
<feGaussianBlur stdDeviation="2"/>
<feComposite in2="hardAlpha" operator="out"/>
<feColorMatrix type="matrix" values="0 0 0 0 0 0 0 0 0 0 0 0 0 0 0 0 0 0 0.25 0"/>
<feBlend mode="normal" in2="BackgroundImageFix" result="effect1_dropShadow_279_368"/>
<feBlend mode="normal" in="SourceGraphic" in2="effect1_dropShadow_279_368" result="shape"/>
</filter>
<linearGradient id="paint0_linear_279_368" x1="0" y1="51.5" x2="420" y2="51.5" gradientUnits="userSpaceOnUse">
<stop stop-color="#575757"/>
<stop offset="0.845" stop-color="#F0C021"/>
</linearGradient>
</defs>
</svg>
