<svg width="295" height="61" viewBox="0 0 295 61" fill="none" xmlns="http://www.w3.org/2000/svg">
<path d="M54.625 0.8125C53.8958 2.47917 53.2448 3.9375 52.6719 5.1875C52.099 6.4375 51.6042 7.50521 51.1875 8.39062C50.7188 9.38021 50.3281 10.2656 50.0156 11.0469C49.7552 11.6198 49.4167 12.401 49 13.3906C48.5833 14.276 48.0625 15.4479 47.4375 16.9062C46.8646 18.3125 46.1094 20.1354 45.1719 22.375C44.7031 20.4479 44.1302 18.7552 43.4531 17.2969C42.776 15.8385 42.0469 14.5625 41.2656 13.4688C40.4844 12.375 39.651 11.4896 38.7656 10.8125C37.9323 10.0833 37.099 9.48438 36.2656 9.01562C34.3385 7.97396 32.3073 7.40104 30.1719 7.29688C27.3594 7.45312 25.1458 7.92188 23.5312 8.70312C21.9688 9.43229 20.8229 10.2917 20.0938 11.2812C19.3646 12.2188 18.974 13.2083 18.9219 14.25C18.8698 15.2396 19 16.0729 19.3125 16.75C19.5729 17.375 20.4844 18.1042 22.0469 18.9375C23.6615 19.7708 25.5885 20.7344 27.8281 21.8281C30.1198 22.8698 32.5677 24.0677 35.1719 25.4219C37.776 26.724 40.1719 28.1823 42.3594 29.7969C44.599 31.3594 46.474 33.0781 47.9844 34.9531C49.5469 36.776 50.4062 38.7292 50.5625 40.8125C50.7188 43.4688 50.6927 45.8646 50.4844 48C50.276 50.1354 49.5469 51.9583 48.2969 53.4688C47.0469 54.9792 45.0938 56.1771 42.4375 57.0625C39.8333 57.9479 36.2135 58.4948 31.5781 58.7031C26.7865 58.9115 22.8542 58.651 19.7812 57.9219C16.7083 57.1927 14.2083 56.2031 12.2812 54.9531C10.4062 53.7031 9 52.3229 8.0625 50.8125C7.17708 49.3021 6.52604 47.8698 6.10938 46.5156C5.69271 45.1094 5.40625 43.9115 5.25 42.9219C5.09375 41.8802 4.83333 41.2552 4.46875 41.0469C4.05208 40.7865 3.63542 40.5521 3.21875 40.3438C2.85417 40.1354 2.46354 39.9531 2.04688 39.7969C1.63021 39.5885 1.21354 39.4062 0.796875 39.25L23.5312 35.5781C22.2292 36.6198 21.2135 37.5833 20.4844 38.4688C19.8073 39.3542 19.2865 40.1354 18.9219 40.8125C18.5052 41.5938 18.2188 42.3229 18.0625 43C17.9583 43.7292 18.1927 44.6406 18.7656 45.7344C19.3385 46.8281 20.1198 47.8958 21.1094 48.9375C22.151 49.9271 23.349 50.7604 24.7031 51.4375C26.0573 52.1146 27.4635 52.401 28.9219 52.2969C30.7448 52.1406 32.2292 51.6979 33.375 50.9688C34.5208 50.1875 35.3802 49.224 35.9531 48.0781C36.5781 46.9323 36.9427 45.6823 37.0469 44.3281C37.151 42.974 37.0208 41.6458 36.6562 40.3438C36.3438 38.9896 35.8229 37.7396 35.0938 36.5938C34.3646 35.3958 33.5052 34.4062 32.5156 33.625C31.6302 33 30.25 32.401 28.375 31.8281C26.5521 31.2552 24.4948 30.6302 22.2031 29.9531C19.9635 29.276 17.6458 28.4948 15.25 27.6094C12.9062 26.724 10.7708 25.6302 8.84375 24.3281C6.96875 23.026 5.45833 21.4896 4.3125 19.7188C3.21875 17.9479 2.80208 15.8125 3.0625 13.3125C3.27083 11.1771 3.94792 9.40625 5.09375 8C6.29167 6.54167 7.77604 5.39583 9.54688 4.5625C11.3698 3.67708 13.375 3.02604 15.5625 2.60938C17.8021 2.19271 20.0677 1.95833 22.3594 1.90625C24.7031 1.80208 26.9948 1.82812 29.2344 1.98438C31.526 2.14062 33.5833 2.32292 35.4062 2.53125C37.2292 2.73958 38.7656 2.94792 40.0156 3.15625C41.3177 3.3125 42.125 3.41667 42.4375 3.46875C43.7917 3.57292 45.1458 3.54688 46.5 3.39062C47.6979 3.28646 49 3.05208 50.4062 2.6875C51.8646 2.27083 53.2708 1.64583 54.625 0.8125ZM48.0687 8.78125C49.6312 8.9375 50.9333 9.06771 51.975 9.17188C53.0687 9.27604 53.9542 9.35417 54.6312 9.40625C55.4125 9.45833 56.0375 9.48438 56.5062 9.48438C56.975 9.53646 57.6 9.53646 58.3812 9.48438C59.0583 9.43229 59.9437 9.38021 61.0375 9.32812C62.1312 9.22396 63.5115 9.06771 65.1781 8.85938C64.8135 9.38021 64.5271 9.84896 64.3187 10.2656C64.1104 10.6302 63.9281 10.9688 63.7719 11.2812L63.3031 12.2188C63.199 12.5312 63.0948 12.8438 62.9906 13.1562C62.8865 13.4167 62.7823 13.7292 62.6781 14.0938C62.626 14.4583 62.574 14.849 62.5219 15.2656H74.5531L73.4594 21.5938L62.4437 20.9688C62.1833 23.625 62.001 25.6823 61.8969 27.1406C61.7927 28.599 61.6885 29.6667 61.5844 30.3438L61.4281 31.75C61.2719 33.7292 61.1156 35.8906 60.9594 38.2344C60.8031 40.526 60.751 42.6615 60.8031 44.6406C60.8552 46.6198 61.0375 48.2865 61.35 49.6406C61.6625 50.9427 62.2094 51.5938 62.9906 51.5938C63.7719 51.5938 64.501 51.3854 65.1781 50.9688C65.8552 50.5521 66.4281 50.0573 66.8969 49.4844C67.4177 48.9115 67.8083 48.3385 68.0687 47.7656C68.3292 47.1406 68.4594 46.6719 68.4594 46.3594C68.4594 46.0469 68.3812 45.6823 68.225 45.2656C67.9646 44.4844 67.4958 43.4948 66.8187 42.2969C68.3292 42.6615 69.6573 43.026 70.8031 43.3906C71.376 43.599 71.8969 43.8073 72.3656 44.0156C72.8865 44.224 73.4854 44.4583 74.1625 44.7188C74.7354 44.9792 75.4646 45.2917 76.35 45.6562C77.2354 46.0208 78.2771 46.4635 79.475 46.9844C78.3292 47.1927 77.4958 47.5312 76.975 48C76.6625 48.2083 76.4281 48.4427 76.2719 48.7031C75.9073 49.276 75.4906 50.0573 75.0219 51.0469C74.5531 51.9844 73.85 52.9219 72.9125 53.8594C71.975 54.7969 70.699 55.6302 69.0844 56.3594C67.5219 57.0885 65.4125 57.5052 62.7562 57.6094C59.9958 57.7135 57.8865 57.2448 56.4281 56.2031C55.0219 55.1615 53.9802 53.9635 53.3031 52.6094C52.6781 51.2031 52.3135 49.8229 52.2094 48.4688C52.1052 47.1146 52.0271 46.2031 51.975 45.7344C51.9229 45.2656 51.9229 44.0938 51.975 42.2188C52.0271 40.3438 52.1052 38.2865 52.2094 36.0469C52.3135 33.7552 52.4177 31.5677 52.5219 29.4844C52.626 27.349 52.6781 25.7865 52.6781 24.7969C52.6781 24.276 52.7042 23.7292 52.7562 23.1562C52.7562 22.6875 52.7562 22.1927 52.7562 21.6719C52.8083 21.099 52.8344 20.5521 52.8344 20.0312L41.5062 19.9531L41.0375 15.5L52.4437 15.8125C52.3396 15.2396 52.2094 14.7188 52.0531 14.25C51.949 13.7292 51.8448 13.3125 51.7406 13C51.5844 12.6354 51.4281 12.3229 51.2719 12.0625C51.0635 11.8021 50.8292 11.5156 50.5687 11.2031C50.3083 10.9427 49.9698 10.6042 49.5531 10.1875C49.1365 9.77083 48.6417 9.30208 48.0687 8.78125ZM69.0906 20.5781C70.0802 20.6302 70.9656 20.6562 71.7469 20.6562C72.5802 20.6042 73.2833 20.5521 73.8562 20.5C74.5333 20.4479 75.1323 20.3958 75.6531 20.3438C76.4344 20.2396 77.2417 20.1094 78.075 19.9531C78.8042 19.849 79.5594 19.7188 80.3406 19.5625C81.174 19.3542 81.9812 19.1198 82.7625 18.8594C82.45 19.6406 82.1896 20.3177 81.9812 20.8906C81.7729 21.4635 81.6167 21.9583 81.5125 22.375C81.3562 22.8438 81.2781 23.2344 81.2781 23.5469C81.226 23.9115 81.2 24.3542 81.2 24.875C81.1479 25.7604 81.1479 27.1927 81.2 29.1719C83.9083 26.8281 86.174 25.0052 87.9969 23.7031C89.8719 22.401 91.3562 21.3854 92.45 20.6562C93.7521 19.8229 94.7677 19.276 95.4969 19.0156C97.424 18.7031 99.1167 19.1458 100.575 20.3438C101.2 20.8646 101.799 21.5677 102.372 22.4531C102.945 23.2865 103.44 24.4062 103.856 25.8125C104.273 27.2188 104.585 28.9115 104.794 30.8906C105.002 32.8177 105.028 35.1354 104.872 37.8438C103.778 37.9479 102.789 38.0521 101.903 38.1562C101.07 38.2604 100.367 38.3385 99.7937 38.3906C99.1167 38.4948 98.4917 38.5469 97.9187 38.5469L95.8094 38.7812C95.0802 38.8854 94.1687 38.9896 93.075 39.0938C92.0333 39.1458 90.7573 39.25 89.2469 39.4062C91.4344 37.6354 92.8406 36.099 93.4656 34.7969C94.1427 33.4427 94.4292 32.3229 94.325 31.4375C94.2208 30.4479 93.7521 29.5885 92.9187 28.8594C91.9292 28.2865 90.8615 28.0781 89.7156 28.2344C88.726 28.3385 87.5802 28.7812 86.2781 29.5625C84.976 30.3438 83.5958 31.8021 82.1375 33.9375C82.2417 37.2708 82.3458 40.0312 82.45 42.2188C82.6062 44.4062 82.7365 46.1771 82.8406 47.5312C82.9969 49.0938 83.1271 50.3177 83.2312 51.2031C83.3875 51.9844 83.7 52.8177 84.1687 53.7031C84.5333 54.4323 85.0542 55.2396 85.7312 56.125C86.4083 57.0104 87.2937 57.8958 88.3875 58.7812C86.0958 58.6771 84.2208 58.6771 82.7625 58.7812C81.8771 58.8333 81.0958 58.8854 80.4187 58.9375C79.6896 59.0417 78.9083 59.1458 78.075 59.25C77.3458 59.3542 76.4865 59.4583 75.4969 59.5625C74.5594 59.7188 73.5177 59.875 72.3719 60.0312C72.7885 59.4583 73.1271 58.7812 73.3875 58C73.6479 57.2708 73.8562 56.5677 74.0125 55.8906C74.2208 55.1094 74.3771 54.3021 74.4812 53.4688C74.5333 52.7396 74.5594 51.6458 74.5594 50.1875C74.6115 48.7292 74.5854 47.0885 74.4812 45.2656C74.4292 43.3906 74.351 41.4635 74.2469 39.4844C74.1427 37.4531 74.0125 35.5521 73.8562 33.7812C73.7 32.0104 73.5177 30.474 73.3094 29.1719C73.1531 27.8177 72.9708 26.8802 72.7625 26.3594C72.5021 25.7344 72.1896 25.1094 71.825 24.4844C71.5125 23.9115 71.1219 23.3125 70.6531 22.6875C70.1844 22.0104 69.6635 21.3073 69.0906 20.5781ZM122.066 45.4219C123.524 45.4219 124.878 45.2656 126.128 44.9531C127.17 44.6927 128.159 44.276 129.097 43.7031C130.086 43.0781 130.738 42.1667 131.05 40.9688C132.092 41.1771 132.977 41.3594 133.706 41.5156C134.435 41.6198 135.06 41.724 135.581 41.8281C136.154 41.9844 136.649 42.0885 137.066 42.1406C137.482 42.2448 137.977 42.349 138.55 42.4531C139.071 42.5573 139.696 42.6875 140.425 42.8438C141.206 42.9479 142.118 43.1042 143.159 43.3125C142.378 43.2083 141.571 43.2865 140.738 43.5469C139.956 43.8073 139.201 44.0938 138.472 44.4062C137.639 44.7708 136.857 45.2135 136.128 45.7344C135.659 46.0469 135.113 46.5156 134.488 47.1406C133.915 47.7656 133.081 48.3646 131.988 48.9375C130.894 49.5104 129.435 50.0052 127.613 50.4219C125.842 50.7865 123.55 50.9167 120.738 50.8125C117.352 50.7083 114.514 50.1094 112.222 49.0156C109.93 47.8698 108.081 46.4896 106.675 44.875C105.269 43.2083 104.253 41.4115 103.628 39.4844C103.003 37.5573 102.665 35.7604 102.613 34.0938C102.56 32.4271 103.055 30.6823 104.097 28.8594C105.139 27.0365 106.597 25.3698 108.472 23.8594C110.399 22.349 112.717 21.125 115.425 20.1875C118.133 19.1979 121.102 18.7031 124.331 18.7031C126.206 18.7031 127.925 18.9375 129.488 19.4062C131.102 19.8229 132.56 20.3958 133.863 21.125C135.217 21.8542 136.389 22.6875 137.378 23.625C138.368 24.5104 139.201 25.4219 139.878 26.3594C140.555 27.349 141.128 28.3906 141.597 29.4844C142.014 30.4219 142.352 31.4896 142.613 32.6875C142.873 33.8854 142.951 35.1094 142.847 36.3594C138.889 36.4635 135.685 36.5417 133.238 36.5938C130.842 36.6458 128.967 36.6719 127.613 36.6719H124.097H121.441C120.503 36.6719 119.279 36.6979 117.769 36.75C116.258 36.8021 114.409 36.8802 112.222 36.9844C112.482 39.0677 113.133 40.6823 114.175 41.8281C115.269 42.9219 116.415 43.7552 117.613 44.3281C118.967 44.9531 120.451 45.3177 122.066 45.4219ZM115.034 31.3594C116.701 31.4635 118.081 31.5417 119.175 31.5938C120.321 31.6458 121.258 31.6979 121.988 31.75C122.769 31.8021 123.394 31.8281 123.863 31.8281H125.816C127.118 31.8281 129.54 31.75 133.081 31.5938C132.925 29.3021 132.43 27.5573 131.597 26.3594C130.816 25.1615 129.982 24.276 129.097 23.7031C128.055 23.0781 126.909 22.7135 125.659 22.6094C122.274 22.6615 119.748 23.3646 118.081 24.7188C116.467 26.0729 115.451 28.2865 115.034 31.3594ZM145.431 26.3594C145.692 26.0469 145.848 25.474 145.9 24.6406C146.004 23.7552 146.212 22.7656 146.525 21.6719C146.89 20.5781 147.489 19.4323 148.322 18.2344C149.155 17.0365 150.509 15.9167 152.384 14.875C154.207 13.8333 155.978 13.2083 157.697 13C159.416 12.7917 161.056 12.8698 162.619 13.2344C164.181 13.599 165.64 14.1719 166.994 14.9531C168.4 15.7344 169.676 16.5938 170.822 17.5312C171.603 18.1562 172.228 19.0677 172.697 20.2656C173.166 21.4115 173.53 22.7135 173.791 24.1719C174.051 25.6302 174.233 27.1667 174.337 28.7812C174.494 30.3438 174.598 31.8802 174.65 33.3906C174.702 34.849 174.728 36.2031 174.728 37.4531C174.78 38.651 174.884 39.6406 175.041 40.4219C175.249 41.5677 175.614 42.5573 176.134 43.3906C176.655 44.1719 177.228 44.849 177.853 45.4219C178.478 45.9427 179.103 46.3594 179.728 46.6719C180.353 46.9844 180.9 47.2188 181.369 47.375C181.681 47.5312 181.968 47.6354 182.228 47.6875C182.749 47.8958 183.114 47.8958 183.322 47.6875C183.009 48.4167 182.723 49.0417 182.462 49.5625C182.202 50.0833 181.994 50.526 181.837 50.8906C181.629 51.3073 181.447 51.6458 181.291 51.9062C181.134 52.2188 180.952 52.5052 180.744 52.7656C180.587 53.026 180.379 53.3125 180.119 53.625C179.858 53.9375 179.598 54.276 179.337 54.6406C178.66 54.3802 178.009 54.0677 177.384 53.7031C176.811 53.3385 176.291 53 175.822 52.6875C175.249 52.3229 174.728 51.9583 174.259 51.5938C173.791 51.2292 173.348 50.8125 172.931 50.3438C172.567 49.9271 172.176 49.4844 171.759 49.0156C171.395 48.5469 171.082 48.026 170.822 47.4531C170.509 48.1302 169.754 49.0938 168.556 50.3438C167.41 51.5938 165.9 52.7396 164.025 53.7812C162.15 54.7708 159.962 55.474 157.462 55.8906C155.015 56.3073 152.306 56.0208 149.337 55.0312C148.035 54.6146 146.811 54.0156 145.666 53.2344C144.52 52.401 143.53 51.4115 142.697 50.2656C141.916 49.1198 141.343 47.8177 140.978 46.3594C140.666 44.849 140.692 43.1823 141.056 41.3594C141.421 39.5365 142.072 38 143.009 36.75C143.947 35.5 145.067 34.4844 146.369 33.7031C147.671 32.9219 149.129 32.3229 150.744 31.9062C152.358 31.4896 154.025 31.2031 155.744 31.0469C157.098 30.9948 158.452 31.0729 159.806 31.2812C160.952 31.4896 162.15 31.8802 163.4 32.4531C164.65 32.974 165.718 33.7812 166.603 34.875C166.551 32.1146 166.447 29.9271 166.291 28.3125C166.186 26.6458 166.082 25.3698 165.978 24.4844C165.77 23.4427 165.587 22.7135 165.431 22.2969C165.171 21.9323 164.884 21.5156 164.572 21.0469C164.311 20.5781 163.973 20.1615 163.556 19.7969C163.14 19.3802 162.619 19.0417 161.994 18.7812C161.369 18.5208 160.64 18.4167 159.806 18.4688C158.921 18.5208 158.218 18.7552 157.697 19.1719C157.176 19.5885 156.759 20.0833 156.447 20.6562C156.186 21.1771 156.03 21.75 155.978 22.375C155.926 23 155.952 23.5469 156.056 24.0156C156.16 24.3281 156.317 24.6667 156.525 25.0312C156.733 25.3438 157.02 25.6823 157.384 26.0469C157.749 26.4115 158.244 26.724 158.869 26.9844C157.671 27.1406 156.603 27.2708 155.666 27.375C154.728 27.4271 153.921 27.5052 153.244 27.6094C152.462 27.7135 151.785 27.7917 151.212 27.8438C150.64 27.8958 149.962 28 149.181 28.1562C148.504 28.2604 147.671 28.3906 146.681 28.5469C145.692 28.7031 144.546 28.9115 143.244 29.1719C143.556 28.8073 143.843 28.4688 144.103 28.1562C144.364 27.7917 144.598 27.4792 144.806 27.2188C145.015 26.9062 145.223 26.6198 145.431 26.3594ZM157.15 35.6562C156.212 35.7083 155.275 35.9427 154.337 36.3594C153.4 36.724 152.567 37.2708 151.837 38C151.108 38.6771 150.483 39.4844 149.962 40.4219C149.494 41.3073 149.259 42.2969 149.259 43.3906C149.259 44.4844 149.52 45.4479 150.041 46.2812C150.614 47.0625 151.343 47.7135 152.228 48.2344C153.166 48.7552 154.155 49.0677 155.197 49.1719C156.291 49.276 157.358 49.1719 158.4 48.8594C159.39 48.4948 160.327 47.9219 161.212 47.1406C162.098 46.3073 162.853 45.4219 163.478 44.4844C164.103 43.4948 164.546 42.5312 164.806 41.5938C165.067 40.6042 165.093 39.7969 164.884 39.1719C164.468 37.8177 163.53 36.8802 162.072 36.3594C160.614 35.7865 158.973 35.5521 157.15 35.6562ZM175.75 20.9688C176.948 20.8646 177.964 20.7604 178.797 20.6562C179.682 20.5521 180.411 20.4479 180.984 20.3438C181.661 20.2396 182.234 20.1354 182.703 20.0312C183.172 19.9792 183.693 19.875 184.266 19.7188C184.786 19.6146 185.359 19.4844 185.984 19.3281C186.661 19.1198 187.391 18.8854 188.172 18.625L187.703 28.5469C188.849 26.724 190.177 25.3438 191.688 24.4062C193.198 23.4167 194.63 22.6875 195.984 22.2188C197.599 21.6458 199.214 21.3073 200.828 21.2031C202.495 21.2552 204.031 21.5156 205.438 21.9844C206.635 22.401 207.833 23.0521 209.031 23.9375C210.281 24.8229 211.245 26.125 211.922 27.8438C213.693 26.0208 215.438 24.6146 217.156 23.625C218.927 22.5833 220.49 21.8021 221.844 21.2812C223.458 20.7083 224.969 20.3698 226.375 20.2656C228.25 20.2135 229.969 20.526 231.531 21.2031C233.146 21.8802 234.552 22.7396 235.75 23.7812C236.948 24.7708 237.911 25.8385 238.641 26.9844C239.37 28.0781 239.786 29.0417 239.891 29.875C240.047 31.0208 239.969 32.5052 239.656 34.3281C239.344 36.099 238.979 37.9219 238.562 39.7969C238.146 41.6198 237.755 43.3125 237.391 44.875C237.078 46.3854 236.948 47.4531 237 48.0781C237.156 48.599 237.521 49.224 238.094 49.9531C238.615 50.5781 239.37 51.3594 240.359 52.2969C241.401 53.1823 242.885 54.224 244.812 55.4219C243.146 55.3698 241.661 55.3177 240.359 55.2656C239.109 55.2135 238.042 55.1354 237.156 55.0312C236.115 54.9271 235.203 54.849 234.422 54.7969C233.797 54.7969 233.042 54.7448 232.156 54.6406C231.427 54.5885 230.464 54.5104 229.266 54.4062C228.12 54.3021 226.792 54.1979 225.281 54.0938C225.854 53.9375 226.323 53.651 226.688 53.2344C227.052 52.7656 227.365 52.3229 227.625 51.9062C227.885 51.3854 228.094 50.8125 228.25 50.1875C228.354 49.6667 228.458 48.8333 228.562 47.6875C228.667 46.5417 228.745 45.2396 228.797 43.7812C228.901 42.3229 228.953 40.7865 228.953 39.1719C229.005 37.5573 229.005 36.0208 228.953 34.5625C228.901 33.1042 228.797 31.776 228.641 30.5781C228.484 29.3802 228.276 28.4688 228.016 27.8438C227.807 27.375 227.443 27.0104 226.922 26.75C226.401 26.4375 225.802 26.2552 225.125 26.2031C224.448 26.099 223.771 26.125 223.094 26.2812C222.417 26.3854 221.818 26.5938 221.297 26.9062C220.828 27.2708 220.203 27.7656 219.422 28.3906C218.745 28.9635 217.859 29.7448 216.766 30.7344C215.672 31.724 214.292 32.974 212.625 34.4844C212.469 37.7656 212.339 40.4219 212.234 42.4531C212.182 44.4323 212.13 45.9427 212.078 46.9844C212.026 48.2344 212 49.0938 212 49.5625C211.948 49.9792 211.974 50.3698 212.078 50.7344C212.182 51.5156 212.495 52.2448 213.016 52.9219C212.391 52.7656 211.714 52.6615 210.984 52.6094C210.307 52.5573 209.682 52.5052 209.109 52.4531C208.432 52.401 207.755 52.375 207.078 52.375C206.505 52.375 205.88 52.401 205.203 52.4531C204.63 52.5052 203.927 52.5833 203.094 52.6875C202.26 52.7396 201.349 52.8177 200.359 52.9219C200.776 52.6615 201.115 52.349 201.375 51.9844C201.635 51.6198 201.844 51.2812 202 50.9688C202.208 50.6042 202.365 50.2656 202.469 49.9531C202.521 49.6406 202.625 48.8854 202.781 47.6875C202.938 46.4375 203.042 44.9792 203.094 43.3125C203.146 41.6458 203.146 39.901 203.094 38.0781C203.042 36.2031 202.859 34.5104 202.547 33C202.234 31.4375 201.74 30.1615 201.062 29.1719C200.438 28.1823 199.604 27.7396 198.562 27.8438C197.312 27.9479 196.036 28.2604 194.734 28.7812C193.641 29.1979 192.469 29.8229 191.219 30.6562C189.969 31.4896 188.797 32.6094 187.703 34.0156C187.495 37.9219 187.365 41.0208 187.312 43.3125C187.312 45.6042 187.339 47.349 187.391 48.5469C187.443 49.9531 187.495 50.9167 187.547 51.4375C187.599 51.8021 187.729 52.1667 187.938 52.5312C188.094 52.8438 188.276 53.2083 188.484 53.625C188.745 54.0417 189.031 54.4323 189.344 54.7969L176.922 54.1719C177.339 53.9635 177.703 53.7031 178.016 53.3906C178.328 53.026 178.589 52.6615 178.797 52.2969C179.005 51.8802 179.214 51.4635 179.422 51.0469C179.578 50.6823 179.708 49.8229 179.812 48.4688C179.969 47.1146 180.099 45.526 180.203 43.7031C180.307 41.8281 180.385 39.875 180.438 37.8438C180.542 35.7604 180.594 33.8333 180.594 32.0625C180.646 30.2396 180.672 28.7031 180.672 27.4531C180.672 26.151 180.646 25.3698 180.594 25.1094C180.438 24.5885 180.151 24.0417 179.734 23.4688C179.37 23.0521 178.875 22.6094 178.25 22.1406C177.625 21.6198 176.792 21.2292 175.75 20.9688ZM238.803 23.0781L253.178 23.2344C252.345 26.4115 251.72 29.1198 251.303 31.3594C250.939 33.599 250.704 35.474 250.6 36.9844C250.392 38.7031 250.34 40.1615 250.444 41.3594C250.6 42.4531 250.86 43.625 251.225 44.875C251.538 45.9167 252.006 47.1146 252.631 48.4688C253.256 49.8229 254.09 51.1771 255.131 52.5312C254.506 52.3229 253.829 52.1667 253.1 52.0625C252.371 51.9583 251.694 51.8802 251.069 51.8281C250.34 51.776 249.61 51.776 248.881 51.8281C248.152 51.8802 247.345 51.9583 246.459 52.0625C245.73 52.1667 244.845 52.2969 243.803 52.4531C242.761 52.6094 241.668 52.8177 240.522 53.0781C241.303 50.7344 241.902 48.7031 242.319 46.9844C242.788 45.2656 243.126 43.8333 243.334 42.6875C243.543 41.3333 243.673 40.2396 243.725 39.4062C243.725 38.3646 243.725 37.1927 243.725 35.8906C243.725 34.5365 243.725 33.2344 243.725 31.9844C243.725 30.7344 243.699 29.6406 243.647 28.7031C243.595 27.7135 243.491 27.0885 243.334 26.8281L242.553 26.0469C242.241 25.7865 241.772 25.4219 241.147 24.9531C240.574 24.4323 239.793 23.8073 238.803 23.0781ZM244.35 11.0469C245.444 10.474 246.538 10.3177 247.631 10.5781C248.777 10.8385 249.663 11.3333 250.288 12.0625C250.913 12.7917 251.121 13.651 250.913 14.6406C250.756 15.6302 249.923 16.5938 248.413 17.5312C246.902 18.4167 245.574 18.7292 244.428 18.4688C243.282 18.2083 242.475 17.6615 242.006 16.8281C241.538 15.9948 241.459 15.0312 241.772 13.9375C242.084 12.7917 242.944 11.8281 244.35 11.0469ZM248.575 14.6406C250.085 14.6406 251.335 14.6667 252.325 14.7188C253.315 14.7188 254.096 14.7188 254.669 14.7188H256.231H258.028C258.757 14.7188 259.721 14.7188 260.919 14.7188C262.169 14.6667 263.783 14.5885 265.762 14.4844C264.825 14.6927 264.096 14.9271 263.575 15.1875C263.054 15.3958 262.664 15.6302 262.403 15.8906C262.091 16.151 261.908 16.4375 261.856 16.75C261.908 17.1667 262.091 17.8177 262.403 18.7031C262.664 19.4844 263.106 20.5521 263.731 21.9062C264.408 23.2604 265.398 25.0833 266.7 27.375C268.887 24.875 270.554 22.8958 271.7 21.4375C272.846 19.9792 273.705 18.8594 274.278 18.0781C274.851 17.1927 275.19 16.5938 275.294 16.2812C275.242 16.0208 275.164 15.7604 275.059 15.5C274.903 15.0833 274.512 14.4323 273.887 13.5469C275.294 13.651 276.518 13.7292 277.559 13.7812C278.601 13.7812 279.486 13.8073 280.216 13.8594C281.049 13.9115 281.726 13.9375 282.247 13.9375C282.82 13.9375 283.653 13.9115 284.747 13.8594C285.632 13.8073 286.83 13.7552 288.341 13.7031C289.903 13.599 291.856 13.4427 294.2 13.2344C292.273 14.1719 290.632 15.0833 289.278 15.9688C287.924 16.8021 286.804 17.5573 285.919 18.2344C284.877 19.0156 284.018 19.7448 283.341 20.4219C282.664 21.2031 281.83 22.1667 280.841 23.3125C279.955 24.3542 278.861 25.6562 277.559 27.2188C276.309 28.7292 274.773 30.6302 272.95 32.9219C274.304 35.2656 275.58 37.2708 276.778 38.9375C278.028 40.6042 279.096 41.9844 279.981 43.0781C281.023 44.3802 281.986 45.4219 282.872 46.2031C283.757 46.9844 284.721 47.7656 285.762 48.5469C286.648 49.224 287.664 49.9531 288.809 50.7344C290.007 51.4635 291.283 52.1146 292.637 52.6875C291.283 52.7917 289.955 52.8698 288.653 52.9219C287.403 52.9219 286.283 52.974 285.294 53.0781C284.148 53.1823 283.054 53.2604 282.012 53.3125C280.971 53.4167 279.903 53.4948 278.809 53.5469C277.872 53.599 276.83 53.651 275.684 53.7031C274.539 53.7552 273.367 53.7812 272.169 53.7812C272.637 53.3125 273.002 52.8698 273.262 52.4531C273.523 52.0365 273.731 51.6719 273.887 51.3594C274.096 50.9948 274.226 50.6562 274.278 50.3438C274.226 49.9271 273.966 49.25 273.497 48.3125C273.08 47.4792 272.429 46.3333 271.544 44.875C270.658 43.3646 269.356 41.3333 267.637 38.7812C266.44 40.0312 265.476 41.125 264.747 42.0625C264.07 43 263.549 43.7812 263.184 44.4062C262.768 45.1354 262.481 45.7344 262.325 46.2031C262.221 46.6719 262.221 47.1927 262.325 47.7656C262.429 48.2344 262.585 48.8073 262.794 49.4844C263.002 50.1094 263.367 50.7604 263.887 51.4375C261.283 51.5938 259.096 51.6719 257.325 51.6719H254.669C253.835 51.6719 252.846 51.6458 251.7 51.5938C250.71 51.5417 249.486 51.5156 248.028 51.5156C246.518 51.4635 244.773 51.3854 242.794 51.2812C243.367 51.0729 243.966 50.8125 244.591 50.5C245.216 50.1875 245.762 49.901 246.231 49.6406C246.804 49.3281 247.351 48.9896 247.872 48.625C248.445 48.1562 249.356 47.2708 250.606 45.9688C251.648 44.875 253.08 43.3385 254.903 41.3594C256.726 39.3281 259.096 36.6198 262.012 33.2344C260.294 30.1094 258.887 27.6354 257.794 25.8125C256.752 23.9375 255.945 22.4792 255.372 21.4375C254.695 20.2396 254.2 19.4323 253.887 19.0156C253.575 18.599 253.158 18.1302 252.637 17.6094C251.804 16.776 250.45 15.7865 248.575 14.6406Z" fill="url(#paint0_linear_333_369)"/>
<defs>
<linearGradient id="paint0_linear_333_369" x1="4" y1="36.5" x2="424" y2="36.5" gradientUnits="userSpaceOnUse">
<stop stop-color="#575757"/>
<stop offset="0.845" stop-color="#F0C021"/>
</linearGradient>
</defs>
</svg>
